NotoSansMono-Bold.ufo
<glyph name="Q" format="2">
  <advance width="600"/>
  <unicode hex="0051"/>
  <anchor x="300" y="-220" name="bottom"/>
  <anchor x="300" y="714" name="top"/>
  <anchor x="600" y="714" name="topright"/>
  <anchor x="300" y="357" name="center"/>
  <anchor x="295" y="10" name="ogonek"/>
  <anchor x="20" y="714" name="topleft"/>
  <outline>
    <contour>
      <point x="394" y="-180" type="line"/>
      <point x="580" y="-180" type="line"/>
      <point x="441" y="93" type="line"/>
      <point x="300" y="27" type="line"/>
    </contour>
    <component base="O"/>
  </outline>
</glyph>
<glyph name="asciitilde" format="2">
  <advance width="600"/>
  <unicode hex="007E"/>
  <outline>
    <contour>
      <point x="65" y="257" type="line"/>
      <point x="100" y="293"/>
      <point x="137" y="316"/>
      <point x="173" y="316" type="curve" smooth="yes"/>
      <point x="204" y="316"/>
      <point x="237" y="309"/>
      <point x="282" y="289" type="curve" smooth="yes"/>
      <point x="335" y="265"/>
      <point x="372" y="258"/>
      <point x="412" y="258" type="curve" smooth="yes"/>
      <point x="461" y="258"/>
      <point x="502" y="276"/>
      <point x="534" y="311" type="curve"/>
      <point x="534" y="448" type="line"/>
      <point x="501" y="413"/>
      <point x="460" y="389"/>
      <point x="427" y="389" type="curve" smooth="yes"/>
      <point x="396" y="389"/>
      <point x="361" y="397"/>
      <point x="317" y="416" type="curve" smooth="yes"/>
      <point x="265" y="438"/>
      <point x="228" y="447"/>
      <point x="187" y="447" type="curve" smooth="yes"/>
      <point x="137" y="447"/>
      <point x="97" y="429"/>
      <point x="65" y="394" type="curve"/>
    </contour>
  </outline>
</glyph>
<glyph name="acute" format="2">
  <advance width="600"/>
  <unicode hex="00B4"/>
  <outline>
    <contour>
      <point x="200" y="606" type="line"/>
      <point x="323" y="606" type="line"/>
      <point x="375" y="647"/>
      <point x="461" y="720"/>
      <point x="499" y="756" type="curve"/>
      <point x="499" y="766" type="line"/>
      <point x="303" y="766" type="line"/>
      <point x="276" y="722"/>
      <point x="233" y="665"/>
      <point x="200" y="620" type="curve"/>
    </contour>
  </outline>
</glyph>
<glyph name="micro" format="2">
  <advance width="600"/>
  <unicode hex="00B5"/>
  <anchor x="300" y="0" name="bottom"/>
  <anchor x="540" y="10" name="ogonek"/>
  <anchor x="300" y="553" name="top"/>
  <anchor x="580" y="553" name="topright"/>
  <outline>
    <contour>
      <point x="40" y="-240" type="line"/>
      <point x="215" y="-240" type="line"/>
      <point x="215" y="227" type="line"/>
      <point x="40" y="227" type="line"/>
    </contour>
    <component base="u"/>
  </outline>
</glyph>
<glyph name="Oslash" format="2">
  <advance width="600"/>
  <unicode hex="00D8"/>
  <anchor x="300" y="0" name="bottom"/>
  <anchor x="300" y="714" name="top"/>
  <anchor x="300" y="357" name="center"/>
  <anchor x="295" y="10" name="ogonek"/>
  <anchor x="20" y="714" name="topleft"/>
  <anchor x="600" y="714" name="topright"/>
  <outline>
    <contour>
      <point x="96" y="-47" type="line"/>
      <point x="594" y="697" type="line"/>
      <point x="500" y="759" type="line"/>
      <point x="1" y="17" type="line"/>
    </contour>
    <component base="O"/>
  </outline>
</glyph>
<glyph name="oslash" format="2">
  <advance width="600"/>
  <unicode hex="00F8"/>
  <anchor x="300" y="0" name="bottom"/>
  <anchor x="300" y="553" name="top"/>
  <anchor x="300" y="277" name="center"/>
  <anchor x="301" y="10" name="ogonek"/>
  <anchor x="580" y="553" name="topright"/>
  <outline>
    <contour>
      <point x="147" y="-42" type="line"/>
      <point x="529" y="543" type="line"/>
      <point x="450" y="595" type="line"/>
      <point x="68" y="9" type="line"/>
    </contour>
    <component base="o"/>
  </outline>
</glyph>
<glyph name="eogonek" format="2">
  <advance width="600"/>
  <unicode hex="0119"/>
  <anchor x="320" y="-240" name="bottom"/>
  <anchor x="300" y="553" name="top"/>
  <anchor x="305" y="10" name="ogonek"/>
  <anchor x="580" y="553" name="topright"/>
  <outline>
    <contour>
      <point x="453" y="-240" type="curve" smooth="yes"/>
      <point x="487" y="-240"/>
      <point x="513" y="-233"/>
      <point x="532" y="-226" type="curve"/>
      <point x="532" y="-121" type="line"/>
      <point x="520" y="-127"/>
      <point x="501" y="-132"/>
      <point x="484" y="-132" type="curve" smooth="yes"/>
      <point x="458" y="-132"/>
      <point x="444" y="-119"/>
      <point x="444" y="-93" type="curve" smooth="yes"/>
      <point x="444" y="-55"/>
      <point x="473" y="-13"/>
      <point x="538" y="30" type="curve"/>
      <point x="459" y="51" type="line"/>
      <point x="384" y="0"/>
      <point x="321" y="-44"/>
      <point x="321" y="-126" type="curve" smooth="yes"/>
      <point x="321" y="-200"/>
      <point x="373" y="-240"/>
    </contour>
    <component base="e"/>
  </outline>
</glyph>
<glyph name="Lslash" format="2">
  <advance width="600"/>
  <unicode hex="0141"/>
  <anchor x="337" y="0" name="bottom"/>
  <anchor x="195" y="714" name="top"/>
  <anchor x="330" y="357" name="center"/>
  <anchor x="497" y="714" name="topright"/>
  <outline>
    <contour>
      <point x="65" y="212" type="line"/>
      <point x="442" y="442" type="line"/>
      <point x="376" y="552" type="line"/>
      <point x="1" y="323" type="line"/>
    </contour>
    <component base="L" xOffset="30"/>
  </outline>
</glyph>
<glyph name="lslash" format="2">
  <advance width="600"/>
  <unicode hex="0142"/>
  <anchor x="300" y="0" name="bottom"/>
  <anchor x="300" y="760" name="top"/>
  <anchor x="318" y="390" name="center"/>
  <anchor x="508" y="760" name="topright"/>
  <outline>
    <contour>
      <point x="164" y="222" type="line"/>
      <point x="523" y="424" type="line"/>
      <point x="458" y="535" type="line"/>
      <point x="101" y="334" type="line"/>
    </contour>
    <component base="l"/>
  </outline>
</glyph>
<glyph name="Tbar" format="2">
  <advance width="600"/>
  <unicode hex="0166"/>
  <anchor x="300" y="0" name="bottom"/>
  <anchor x="300" y="714" name="top"/>
  <anchor x="300" y="357" name="center"/>
  <anchor x="580" y="714" name="topright"/>
  <outline>
    <contour>
      <point x="102" y="276" type="line"/>
      <point x="498" y="276" type="line"/>
      <point x="498" y="422" type="line"/>
      <point x="102" y="422" type="line"/>
    </contour>
    <component base="T"/>
  </outline>
</glyph>
<glyph name="tbar" format="2">
  <advance width="600"/>
  <unicode hex="0167"/>
  <anchor x="324" y="0" name="bottom"/>
  <anchor x="275" y="677" name="top"/>
  <anchor x="242" y="277" name="center"/>
  <anchor x="580" y="677" name="topright"/>
  <outline>
    <contour>
      <point x="24" y="227" type="line"/>
      <point x="530" y="227" type="line"/>
      <point x="530" y="338" type="line"/>
      <point x="24" y="338" type="line"/>
    </contour>
    <component base="t"/>
  </outline>
</glyph>
<glyph name="uni0180" format="2">
  <advance width="600"/>
  <unicode hex="0180"/>
  <anchor x="300" y="0" name="bottom"/>
  <anchor x="313" y="760" name="top"/>
  <anchor x="580" y="760" name="topright"/>
  <outline>
    <contour>
      <point x="-3" y="597" type="line"/>
      <point x="377" y="597" type="line"/>
      <point x="377" y="710" type="line"/>
      <point x="-3" y="710" type="line"/>
    </contour>
    <component base="b"/>
  </outline>
</glyph>
<glyph name="uni0183" format="2">
  <advance width="600"/>
  <unicode hex="0183"/>
  <anchor x="300" y="0" name="bottom"/>
  <anchor x="300" y="760" name="top"/>
  <anchor x="580" y="760" name="topright"/>
  <outline>
    <contour>
      <point x="127" y="616" type="line"/>
      <point x="509" y="616" type="line"/>
      <point x="509" y="760" type="line"/>
      <point x="127" y="760" type="line"/>
    </contour>
    <component base="b"/>
  </outline>
</glyph>
<glyph name="uni0191" format="2">
  <advance width="600"/>
  <unicode hex="0191"/>
  <anchor x="183" y="0" name="bottom"/>
  <anchor x="406" y="714" name="top"/>
  <anchor x="601" y="714" name="topright"/>
  <outline>
    <contour>
      <point x="183" y="-15" type="curve" smooth="yes"/>
      <point x="306" y="-15"/>
      <point x="400" y="53"/>
      <point x="400" y="198" type="curve" smooth="yes"/>
      <point x="400" y="297" type="line"/>
      <point x="557" y="297" type="line"/>
      <point x="557" y="447" type="line"/>
      <point x="400" y="447" type="line"/>
      <point x="400" y="564" type="line"/>
      <point x="569" y="564" type="line"/>
      <point x="569" y="714" type="line"/>
      <point x="229" y="714" type="line"/>
      <point x="229" y="192" type="line" smooth="yes"/>
      <point x="229" y="145"/>
      <point x="209" y="121"/>
      <point x="182" y="121" type="curve" smooth="yes"/>
      <point x="155" y="121"/>
      <point x="137" y="139"/>
      <point x="137" y="164" type="curve" smooth="yes"/>
      <point x="137" y="179"/>
      <point x="141" y="191"/>
      <point x="149" y="208" type="curve"/>
      <point x="6" y="258" type="line"/>
      <point x="-9" y="231"/>
      <point x="-17" y="202"/>
      <point x="-17" y="161" type="curve" smooth="yes"/>
      <point x="-17" y="51"/>
      <point x="64" y="-15"/>
    </contour>
  </outline>
</glyph>
<glyph name="florin" format="2">
  <advance width="600"/>
  <unicode hex="0192"/>
  <anchor x="222" y="0" name="bottom"/>
  <anchor x="405" y="763" name="top"/>
  <anchor x="600" y="765" name="topright"/>
  <outline>
    <contour>
      <point x="219" y="-15" type="curve" smooth="yes"/>
      <point x="329" y="-15"/>
      <point x="412" y="43"/>
      <point x="412" y="181" type="curve" smooth="yes"/>
      <point x="412" y="413" type="line"/>
      <point x="538" y="413" type="line"/>
      <point x="538" y="553" type="line"/>
      <point x="412" y="553" type="line"/>
      <point x="412" y="560" type="line" smooth="yes"/>
      <point x="412" y="604"/>
      <point x="429" y="622"/>
      <point x="474" y="622" type="curve" smooth="yes"/>
      <point x="490" y="622"/>
      <point x="519" y="620"/>
      <point x="550" y="606" type="curve"/>
      <point x="590" y="741" type="line"/>
      <point x="538" y="760"/>
      <point x="496" y="765"/>
      <point x="458" y="765" type="curve" smooth="yes"/>
      <point x="307" y="765"/>
      <point x="237" y="694"/>
      <point x="237" y="581" type="curve" smooth="yes"/>
      <point x="237" y="552" type="line"/>
      <point x="104" y="508" type="line"/>
      <point x="104" y="413" type="line"/>
      <point x="237" y="413" type="line"/>
      <point x="237" y="161" type="line" smooth="yes"/>
      <point x="237" y="135"/>
      <point x="225" y="121"/>
      <point x="207" y="121" type="curve" smooth="yes"/>
      <point x="191" y="121"/>
      <point x="179" y="131"/>
      <point x="179" y="152" type="curve" smooth="yes"/>
      <point x="179" y="165"/>
      <point x="181" y="175"/>
      <point x="187" y="189" type="curve"/>
      <point x="43" y="226" type="line"/>
      <point x="32" y="204"/>
      <point x="25" y="181"/>
      <point x="25" y="149" type="curve" smooth="yes"/>
      <point x="25" y="50"/>
      <point x="99" y="-15"/>
    </contour>
  </outline>
</glyph>
<glyph name="uni019A" format="2">
  <advance width="600"/>
  <unicode hex="019A"/>
  <anchor x="300" y="0" name="bottom"/>
  <anchor x="300" y="760" name="top"/>
  <anchor x="318" y="390" name="center"/>
  <anchor x="508" y="760" name="topright"/>
  <outline>
    <contour>
      <point x="89" y="295" type="line"/>
      <point x="531" y="295" type="line"/>
      <point x="531" y="427" type="line"/>
      <point x="89" y="427" type="line"/>
    </contour>
    <component base="l"/>
  </outline>
</glyph>
<glyph name="uni019B" format="2">
  <advance width="600"/>
  <unicode hex="019B"/>
  <anchor x="250" y="0" name="bottom"/>
  <anchor x="256" y="766" name="top"/>
  <outline>
    <contour>
      <point x="136" y="472" type="line"/>
      <point x="477" y="578" type="line"/>
      <point x="445" y="683" type="line"/>
      <point x="104" y="572" type="line"/>
    </contour>
    <component base="lambda"/>
  </outline>
</glyph>
<glyph name="uni019D" format="2">
  <advance width="600"/>
  <unicode hex="019D"/>
  <anchor x="300" y="-255" name="bottom"/>
  <anchor x="300" y="714" name="top"/>
  <anchor x="600" y="714" name="topright"/>
  <outline>
    <contour>
      <point x="18" y="-255" type="curve" smooth="yes"/>
      <point x="122" y="-255"/>
      <point x="197" y="-198"/>
      <point x="197" y="-56" type="curve" smooth="yes"/>
      <point x="197" y="220" type="line"/>
      <point x="40" y="214" type="line"/>
      <point x="40" y="-69" type="line" smooth="yes"/>
      <point x="40" y="-110"/>
      <point x="18" y="-129"/>
      <point x="-8" y="-129" type="curve" smooth="yes"/>
      <point x="-31" y="-129"/>
      <point x="-54" y="-122"/>
      <point x="-63" y="-119" type="curve"/>
      <point x="-63" y="-238" type="line"/>
      <point x="-49" y="-244"/>
      <point x="-19" y="-255"/>
    </contour>
    <component base="N"/>
  </outline>
</glyph>
<glyph name="uni01AB" format="2">
  <advance width="600"/>
  <unicode hex="01AB"/>
  <anchor x="366" y="-240" name="bottom"/>
  <anchor x="300" y="677" name="top"/>
  <anchor x="242" y="277" name="center"/>
  <anchor x="580" y="677" name="topright"/>
  <outline>
    <contour>
      <point x="373" y="-240" type="curve"/>
      <point x="477" y="-240"/>
      <point x="530" y="-187"/>
      <point x="530" y="-51" type="curve"/>
      <point x="530" y="94" type="line"/>
      <point x="377" y="50" type="line"/>
      <point x="377" y="-53" type="line" smooth="yes"/>
      <point x="377" y="-97"/>
      <point x="358" y="-110"/>
      <point x="328" y="-110" type="curve" smooth="yes"/>
      <point x="311" y="-110"/>
      <point x="296" y="-106"/>
      <point x="284" y="-102" type="curve"/>
      <point x="284" y="-226" type="line"/>
      <point x="307" y="-235"/>
      <point x="340" y="-240"/>
    </contour>
    <component base="t"/>
  </outline>
</glyph>
<glyph name="uni01B5" format="2">
  <advance width="600"/>
  <unicode hex="01B5"/>
  <anchor x="310" y="0" name="bottom"/>
  <anchor x="310" y="714" name="top"/>
  <anchor x="580" y="714" name="topright"/>
  <outline>
    <contour>
      <point x="91" y="288" type="line"/>
      <point x="535" y="288" type="line"/>
      <point x="535" y="425" type="line"/>
      <point x="91" y="425" type="line"/>
    </contour>
    <component base="Z"/>
  </outline>
</glyph>
<glyph name="uni01C2" format="2">
  <advance width="600"/>
  <unicode hex="01C2"/>
  <anchor x="300" y="0" name="bottom"/>
  <anchor x="300" y="760" name="top"/>
  <outline>
    <contour>
      <point x="84" y="418" type="line"/>
      <point x="516" y="418" type="line"/>
      <point x="516" y="544" type="line"/>
      <point x="84" y="544" type="line"/>
    </contour>
    <contour>
      <point x="84" y="197" type="line"/>
      <point x="516" y="197" type="line"/>
      <point x="516" y="323" type="line"/>
      <point x="84" y="323" type="line"/>
    </contour>
    <component base="uni01C0" xOffset="1"/>
  </outline>
</glyph>
<glyph name="uni0224" format="2">
  <advance width="600"/>
  <unicode hex="0224"/>
  <anchor x="328" y="-240" name="bottom"/>
  <anchor x="300" y="714" name="top"/>
  <anchor x="580" y="714" name="topright"/>
  <outline>
    <contour>
      <point x="352" y="-256" type="curve" smooth="yes"/>
      <point x="509" y="-256"/>
      <point x="565" y="-151"/>
      <point x="565" y="-41" type="curve" smooth="yes"/>
      <point x="565" y="150" type="line"/>
      <point x="397" y="150" type="line"/>
      <point x="397" y="0" type="line"/>
      <point x="407" y="0" type="line"/>
      <point x="407" y="-18" type="line" smooth="yes"/>
      <point x="407" y="-104"/>
      <point x="359" y="-124"/>
      <point x="304" y="-124" type="curve" smooth="yes"/>
      <point x="286" y="-124"/>
      <point x="271" y="-122"/>
      <point x="245" y="-115" type="curve"/>
      <point x="245" y="-244" type="line"/>
      <point x="272" y="-252"/>
      <point x="321" y="-256"/>
    </contour>
    <component base="Z"/>
  </outline>
</glyph>
<glyph name="uni0247" format="2">
  <advance width="600"/>
  <unicode hex="0247"/>
  <anchor x="300" y="-208" name="bottom"/>
  <anchor x="300" y="760" name="top"/>
  <anchor x="305" y="10" name="ogonek"/>
  <anchor x="580" y="553" name="topright"/>
  <outline>
    <contour>
      <point x="65" y="-208" type="line"/>
      <point x="187" y="-208" type="line"/>
      <point x="532" y="760" type="line"/>
      <point x="411" y="760" type="line"/>
    </contour>
    <component base="e"/>
  </outline>
</glyph>
<glyph name="uni024F" format="2">
  <advance width="600"/>
  <unicode hex="024F"/>
  <anchor x="300" y="-245" name="bottom"/>
  <anchor x="300" y="553" name="top"/>
  <anchor x="580" y="553" name="topright"/>
  <outline>
    <contour>
      <point x="9" y="278" type="line"/>
      <point x="592" y="278" type="line"/>
      <point x="592" y="402" type="line"/>
      <point x="9" y="402" type="line"/>
    </contour>
    <component base="y"/>
  </outline>
</glyph>
<glyph name="uni025F" format="2">
  <advance width="600"/>
  <unicode hex="025F"/>
  <anchor x="313" y="-239" name="bottom"/>
  <anchor x="340" y="553" name="top"/>
  <anchor x="510" y="553" name="topright"/>
  <outline>
    <contour>
      <point x="205" y="-240" type="curve"/>
      <point x="374" y="-240"/>
      <point x="431" y="-145"/>
      <point x="431" y="-39" type="curve"/>
      <point x="431" y="214" type="line"/>
      <point x="506" y="214" type="line"/>
      <point x="506" y="337" type="line"/>
      <point x="431" y="337" type="line"/>
      <point x="431" y="553" type="line"/>
      <point x="237" y="553" type="line"/>
      <point x="237" y="337" type="line"/>
      <point x="161" y="337" type="line"/>
      <point x="161" y="214" type="line"/>
      <point x="237" y="214" type="line"/>
      <point x="237" y="-4" type="line" smooth="yes"/>
      <point x="237" y="-74"/>
      <point x="202" y="-86"/>
      <point x="166" y="-86" type="curve"/>
      <point x="135" y="-86"/>
      <point x="117" y="-83"/>
      <point x="93" y="-77" type="curve"/>
      <point x="93" y="-228" type="line"/>
      <point x="119" y="-235"/>
      <point x="168" y="-240"/>
    </contour>
  </outline>
</glyph>
<glyph name="uni0262" format="2">
  <advance width="600"/>
  <unicode hex="0262"/>
  <anchor x="330" y="0" name="bottom"/>
  <anchor x="330" y="553" name="top"/>
  <anchor x="550" y="553" name="topright"/>
  <outline>
    <contour>
      <point x="330" y="-11" type="curve" smooth="yes"/>
      <point x="407" y="-11"/>
      <point x="468" y="8"/>
      <point x="510" y="30" type="curve"/>
      <point x="510" y="319" type="line"/>
      <point x="292" y="319" type="line"/>
      <point x="292" y="216" type="line"/>
      <point x="391" y="216" type="line"/>
      <point x="391" y="116" type="line"/>
      <point x="367" y="112"/>
      <point x="355" y="110"/>
      <point x="337" y="110" type="curve" smooth="yes"/>
      <point x="231" y="110"/>
      <point x="192" y="176"/>
      <point x="192" y="272" type="curve" smooth="yes"/>
      <point x="192" y="399"/>
      <point x="261" y="443"/>
      <point x="338" y="443" type="curve" smooth="yes"/>
      <point x="389" y="443"/>
      <point x="434" y="424"/>
      <point x="468" y="405" type="curve"/>
      <point x="519" y="510" type="line"/>
      <point x="464" y="542"/>
      <point x="403" y="560"/>
      <point x="329" y="560" type="curve" smooth="yes"/>
      <point x="134" y="560"/>
      <point x="53" y="434"/>
      <point x="53" y="272" type="curve" smooth="yes"/>
      <point x="53" y="105"/>
      <point x="139" y="-11"/>
    </contour>
  </outline>
</glyph>
<glyph name="uni026A" format="2">
  <advance width="600"/>
  <unicode hex="026A"/>
  <anchor x="300" y="0" name="bottom"/>
  <anchor x="300" y="553" name="top"/>
  <outline>
    <contour>
      <point x="95" y="0" type="line"/>
      <point x="505" y="0" type="line"/>
      <point x="505" y="105" type="line"/>
      <point x="371" y="121" type="line"/>
      <point x="371" y="432" type="line"/>
      <point x="505" y="448" type="line"/>
      <point x="505" y="553" type="line"/>
      <point x="95" y="553" type="line"/>
      <point x="95" y="448" type="line"/>
      <point x="228" y="432" type="line"/>
      <point x="228" y="121" type="line"/>
      <point x="95" y="105" type="line"/>
    </contour>
  </outline>
</glyph>
<glyph name="uni0274" format="2">
  <advance width="600"/>
  <unicode hex="0274"/>
  <anchor x="300" y="0" name="bottom"/>
  <anchor x="300" y="553" name="top"/>
  <outline>
    <contour>
      <point x="68" y="0" type="line"/>
      <point x="204" y="0" type="line"/>
      <point x="204" y="177" type="line" smooth="yes"/>
      <point x="204" y="229"/>
      <point x="203" y="291"/>
      <point x="200" y="342" type="curve"/>
      <point x="377" y="0" type="line"/>
      <point x="533" y="0" type="line"/>
      <point x="533" y="553" type="line"/>
      <point x="398" y="553" type="line"/>
      <point x="398" y="360" type="line" smooth="yes"/>
      <point x="398" y="310"/>
      <point x="400" y="256"/>
      <point x="403" y="206" type="curve"/>
      <point x="223" y="553" type="line"/>
      <point x="68" y="553" type="line"/>
    </contour>
  </outline>
</glyph>
<glyph name="uni0280" format="2">
  <advance width="600"/>
  <unicode hex="0280"/>
  <anchor x="317" y="0" name="bottom"/>
  <anchor x="300" y="553" name="top"/>
  <outline>
    <contour>
      <point x="108" y="0" type="line"/>
      <point x="246" y="0" type="line"/>
      <point x="246" y="190" type="line"/>
      <point x="301" y="190" type="line"/>
      <point x="389" y="0" type="line"/>
      <point x="540" y="0" type="line"/>
      <point x="426" y="222" type="line"/>
      <point x="483" y="257"/>
      <point x="505" y="318"/>
      <point x="505" y="381" type="curve" smooth="yes"/>
      <point x="505" y="490"/>
      <point x="438" y="553"/>
      <point x="296" y="553" type="curve" smooth="yes"/>
      <point x="108" y="553" type="line"/>
    </contour>
    <contour>
      <point x="246" y="299" type="line"/>
      <point x="246" y="444" type="line"/>
      <point x="291" y="444" type="line" smooth="yes"/>
      <point x="343" y="444"/>
      <point x="365" y="421"/>
      <point x="365" y="378" type="curve" smooth="yes"/>
      <point x="365" y="325"/>
      <point x="328" y="299"/>
      <point x="278" y="299" type="curve" smooth="yes"/>
    </contour>
  </outline>
</glyph>
<glyph name="uni0289" format="2">
  <advance width="600"/>
  <unicode hex="0289"/>
  <anchor x="300" y="0" name="bottom"/>
  <anchor x="300" y="553" name="top"/>
  <anchor x="540" y="10" name="ogonek"/>
  <anchor x="580" y="553" name="topright"/>
  <outline>
    <contour>
      <point x="1" y="232" type="line"/>
      <point x="599" y="232" type="line"/>
      <point x="599" y="356" type="line"/>
      <point x="1" y="356" type="line"/>
    </contour>
    <component base="u"/>
  </outline>
</glyph>
<glyph name="uni028F" format="2">
  <advance width="600"/>
  <unicode hex="028F"/>
  <anchor x="300" y="0" name="bottom"/>
  <anchor x="300" y="553" name="top"/>
  <outline>
    <contour>
      <point x="228" y="0" type="line"/>
      <point x="373" y="0" type="line"/>
      <point x="373" y="198" type="line"/>
      <point x="575" y="553" type="line"/>
      <point x="405" y="553" type="line"/>
      <point x="302" y="365" type="line"/>
      <point x="195" y="553" type="line"/>
      <point x="25" y="553" type="line"/>
      <point x="228" y="198" type="line"/>
    </contour>
  </outline>
</glyph>
<glyph name="Etatonos" format="2">
  <advance width="600"/>
  <unicode hex="0389"/>
  <anchor x="332" y="0" name="bottom"/>
  <anchor x="332" y="377" name="center"/>
  <anchor x="332" y="714" name="top"/>
  <anchor x="52" y="714" name="topleft"/>
  <outline>
    <contour>
      <point x="100" y="0" type="line"/>
      <point x="268" y="0" type="line"/>
      <point x="268" y="297" type="line"/>
      <point x="392" y="297" type="line"/>
      <point x="392" y="0" type="line"/>
      <point x="560" y="0" type="line"/>
      <point x="560" y="714" type="line"/>
      <point x="392" y="714" type="line"/>
      <point x="392" y="447" type="line"/>
      <point x="268" y="447" type="line"/>
      <point x="268" y="714" type="line"/>
      <point x="100" y="714" type="line"/>
    </contour>
    <component base="tonos" xOffset="-327"/>
  </outline>
</glyph>
<glyph name="Upsilontonos" format="2">
  <advance width="600"/>
  <unicode hex="038E"/>
  <anchor x="367" y="0" name="bottom"/>
  <anchor x="367" y="714" name="top"/>
  <outline>
    <contour>
      <point x="287" y="0" type="line"/>
      <point x="444" y="0" type="line"/>
      <point x="444" y="276" type="line"/>
      <point x="601" y="714" type="line"/>
      <point x="438" y="714" type="line"/>
      <point x="367" y="460" type="line"/>
      <point x="294" y="714" type="line"/>
      <point x="128" y="714" type="line"/>
      <point x="287" y="276" type="line"/>
    </contour>
    <component base="tonos" xOffset="-321"/>
  </outline>
</glyph>
<glyph name="Theta" format="2">
  <advance width="600"/>
  <unicode hex="0398"/>
  <anchor x="300" y="0" name="bottom"/>
  <anchor x="300" y="714" name="top"/>
  <anchor x="300" y="357" name="center"/>
  <anchor x="295" y="10" name="ogonek"/>
  <anchor x="20" y="714" name="topleft"/>
  <anchor x="600" y="714" name="topright"/>
  <outline>
    <contour>
      <point x="235" y="294" type="line"/>
      <point x="366" y="294" type="line"/>
      <point x="366" y="432" type="line"/>
      <point x="235" y="432" type="line"/>
    </contour>
    <component base="O"/>
  </outline>
</glyph>
<glyph name="afii10042" format="2">
  <advance width="600"/>
  <unicode hex="0428"/>
  <anchor x="300" y="0" name="bottom"/>
  <anchor x="300" y="714" name="top"/>
  <outline>
    <contour>
      <point x="30" y="0" type="line"/>
      <point x="570" y="0" type="line"/>
      <point x="570" y="714" type="line"/>
      <point x="427" y="714" type="line"/>
      <point x="427" y="132" type="line"/>
      <point x="373" y="132" type="line"/>
      <point x="373" y="714" type="line"/>
      <point x="229" y="714" type="line"/>
      <point x="229" y="132" type="line"/>
      <point x="173" y="132" type="line"/>
      <point x="173" y="714" type="line"/>
      <point x="30" y="714" type="line"/>
    </contour>
  </outline>
</glyph>
<glyph name="afii10043" format="2">
  <advance width="600"/>
  <unicode hex="0429"/>
  <anchor x="300" y="-216" name="bottom"/>
  <anchor x="300" y="714" name="top"/>
  <outline>
    <contour>
      <point x="439" y="-216" type="line"/>
      <point x="588" y="-216" type="line"/>
      <point x="588" y="132" type="line"/>
      <point x="428" y="132" type="line"/>
      <point x="428" y="0" type="line"/>
      <point x="439" y="0" type="line"/>
    </contour>
    <component base="afii10042"/>
  </outline>
</glyph>
<glyph name="afii10044" format="2">
  <advance width="600"/>
  <unicode hex="042A"/>
  <anchor x="300" y="0" name="bottom"/>
  <anchor x="300" y="714" name="top"/>
  <outline>
    <contour>
      <point x="0" y="568" type="line"/>
      <point x="230" y="568" type="line"/>
      <point x="230" y="714" type="line"/>
      <point x="0" y="714" type="line"/>
    </contour>
    <component base="afii10046" xOffset="20"/>
  </outline>
</glyph>
<glyph name="afii10099" format="2">
  <advance width="600"/>
  <unicode hex="0452"/>
  <anchor x="300" y="-240" name="bottom"/>
  <anchor x="300" y="760" name="top"/>
  <anchor x="300" y="277" name="center"/>
  <outline>
    <contour>
      <point x="367" y="-240" type="curve" smooth="yes"/>
      <point x="509" y="-240"/>
      <point x="560" y="-150"/>
      <point x="560" y="-50" type="curve" smooth="yes"/>
      <point x="560" y="151" type="line"/>
      <point x="385" y="151" type="line"/>
      <point x="385" y="-17" type="line" smooth="yes"/>
      <point x="385" y="-84"/>
      <point x="358" y="-100"/>
      <point x="327" y="-100" type="curve" smooth="yes"/>
      <point x="304" y="-100"/>
      <point x="289" y="-98"/>
      <point x="267" y="-92" type="curve"/>
      <point x="267" y="-228" type="line"/>
      <point x="293" y="-235"/>
      <point x="336" y="-240"/>
    </contour>
    <component base="afii10108"/>
  </outline>
</glyph>
<glyph name="afii10101" format="2">
  <advance width="600"/>
  <unicode hex="0454"/>
  <anchor x="300" y="0" name="bottom"/>
  <anchor x="300" y="553" name="top"/>
  <anchor x="580" y="553" name="topright"/>
  <outline>
    <contour>
      <point x="197" y="221" type="line"/>
      <point x="424" y="221" type="line"/>
      <point x="424" y="330" type="line"/>
      <point x="197" y="330" type="line"/>
    </contour>
    <component base="c"/>
  </outline>
</glyph>
<glyph name="uni0488" format="2">
  <unicode hex="0488"/>
  <outline>
    <contour>
      <point x="-110" y="573" type="curve"/>
      <point x="-58" y="573" type="line"/>
      <point x="-56" y="599"/>
      <point x="-24" y="602"/>
      <point x="-3" y="602" type="curve" smooth="yes"/>
      <point x="24" y="602"/>
      <point x="50" y="601"/>
      <point x="52" y="573" type="curve"/>
      <point x="103" y="573" type="line"/>
      <point x="100" y="629"/>
      <point x="60" y="665"/>
      <point x="-3" y="665" type="curve" smooth="yes"/>
      <point x="-62" y="665"/>
      <point x="-108" y="627"/>
    </contour>
    <contour>
      <point x="52" y="417" type="curve"/>
      <point x="105" y="417" type="line"/>
      <point x="107" y="442"/>
      <point x="139" y="446"/>
      <point x="160" y="446" type="curve" smooth="yes"/>
      <point x="187" y="446"/>
      <point x="213" y="444"/>
      <point x="215" y="417" type="curve"/>
      <point x="266" y="417" type="line"/>
      <point x="263" y="472"/>
      <point x="222" y="509"/>
      <point x="160" y="509" type="curve" smooth="yes"/>
      <point x="100" y="509"/>
      <point x="55" y="471"/>
    </contour>
    <contour>
      <point x="88" y="233" type="curve"/>
      <point x="140" y="233" type="line"/>
      <point x="142" y="259"/>
      <point x="174" y="262"/>
      <point x="195" y="262" type="curve" smooth="yes"/>
      <point x="222" y="262"/>
      <point x="249" y="261"/>
      <point x="250" y="233" type="curve"/>
      <point x="301" y="233" type="line"/>
      <point x="299" y="289"/>
      <point x="258" y="325"/>
      <point x="195" y="325" type="curve" smooth="yes"/>
      <point x="136" y="325"/>
      <point x="90" y="287"/>
    </contour>
    <contour>
      <point x="52" y="44" type="curve"/>
      <point x="105" y="44" type="line"/>
      <point x="107" y="70"/>
      <point x="139" y="73"/>
      <point x="160" y="73" type="curve" smooth="yes"/>
      <point x="187" y="73"/>
      <point x="213" y="72"/>
      <point x="215" y="44" type="curve"/>
      <point x="266" y="44" type="line"/>
      <point x="263" y="100"/>
      <point x="222" y="136"/>
      <point x="160" y="136" type="curve" smooth="yes"/>
      <point x="100" y="136"/>
      <point x="55" y="98"/>
    </contour>
    <contour>
      <point x="-110" y="-109" type="curve"/>
      <point x="-58" y="-109" type="line"/>
      <point x="-56" y="-84"/>
      <point x="-24" y="-80"/>
      <point x="-3" y="-80" type="curve" smooth="yes"/>
      <point x="24" y="-80"/>
      <point x="50" y="-82"/>
      <point x="52" y="-109" type="curve"/>
      <point x="103" y="-109" type="line"/>
      <point x="100" y="-54"/>
      <point x="60" y="-18"/>
      <point x="-3" y="-18" type="curve" smooth="yes"/>
      <point x="-62" y="-18"/>
      <point x="-108" y="-56"/>
    </contour>
    <contour>
      <point x="-266" y="44" type="curve"/>
      <point x="-213" y="44" type="line"/>
      <point x="-211" y="70"/>
      <point x="-180" y="73"/>
      <point x="-159" y="73" type="curve" smooth="yes"/>
      <point x="-131" y="73"/>
      <point x="-105" y="72"/>
      <point x="-103" y="44" type="curve"/>
      <point x="-52" y="44" type="line"/>
      <point x="-55" y="100"/>
      <point x="-96" y="136"/>
      <point x="-159" y="136" type="curve" smooth="yes"/>
      <point x="-218" y="136"/>
      <point x="-263" y="98"/>
    </contour>
    <contour>
      <point x="-301" y="233" type="curve"/>
      <point x="-249" y="233" type="line"/>
      <point x="-247" y="259"/>
      <point x="-215" y="262"/>
      <point x="-194" y="262" type="curve" smooth="yes"/>
      <point x="-167" y="262"/>
      <point x="-140" y="261"/>
      <point x="-139" y="233" type="curve"/>
      <point x="-88" y="233" type="line"/>
      <point x="-90" y="289"/>
      <point x="-131" y="325"/>
      <point x="-194" y="325" type="curve" smooth="yes"/>
      <point x="-253" y="325"/>
      <point x="-299" y="287"/>
    </contour>
    <contour>
      <point x="-266" y="417" type="curve"/>
      <point x="-213" y="417" type="line"/>
      <point x="-211" y="442"/>
      <point x="-180" y="446"/>
      <point x="-159" y="446" type="curve" smooth="yes"/>
      <point x="-131" y="446"/>
      <point x="-105" y="444"/>
      <point x="-103" y="417" type="curve"/>
      <point x="-52" y="417" type="line"/>
      <point x="-55" y="472"/>
      <point x="-96" y="509"/>
      <point x="-159" y="509" type="curve" smooth="yes"/>
      <point x="-218" y="509"/>
      <point x="-263" y="471"/>
    </contour>
  </outline>
</glyph>
<glyph name="uni0489" format="2">
  <unicode hex="0489"/>
  <outline>
    <contour>
      <point x="231" y="435" type="line"/>
      <point x="270" y="464"/>
      <point x="328" y="502"/>
      <point x="376" y="532" type="curve"/>
      <point x="315" y="593" type="line"/>
      <point x="262" y="573"/>
      <point x="201" y="546"/>
      <point x="156" y="520" type="curve"/>
      <point x="155" y="511" type="line"/>
    </contour>
    <contour>
      <point x="-314" y="-74" type="line"/>
      <point x="-262" y="-54"/>
      <point x="-200" y="-26"/>
      <point x="-156" y="0" type="curve"/>
      <point x="-154" y="8" type="line"/>
      <point x="-231" y="85" type="line"/>
      <point x="-269" y="56"/>
      <point x="-327" y="17"/>
      <point x="-375" y="-12" type="curve"/>
    </contour>
    <contour>
      <point x="-294" y="196" type="curve"/>
      <point x="-287" y="201" type="line"/>
      <point x="-287" y="309" type="line"/>
      <point x="-335" y="316"/>
      <point x="-403" y="330"/>
      <point x="-458" y="343" type="curve"/>
      <point x="-458" y="256" type="line"/>
      <point x="-407" y="233"/>
      <point x="-344" y="209"/>
    </contour>
    <contour>
      <point x="-73" y="-188" type="curve"/>
      <point x="14" y="-188" type="line"/>
      <point x="37" y="-137"/>
      <point x="61" y="-74"/>
      <point x="74" y="-24" type="curve"/>
      <point x="69" y="-17" type="line"/>
      <point x="-39" y="-17" type="line"/>
      <point x="-46" y="-65"/>
      <point x="-60" y="-133"/>
    </contour>
    <contour>
      <point x="272" y="-116" type="curve"/>
      <point x="333" y="-55" type="line"/>
      <point x="313" y="-2"/>
      <point x="286" y="59"/>
      <point x="260" y="104" type="curve"/>
      <point x="251" y="105" type="line"/>
      <point x="175" y="29" type="line"/>
      <point x="204" y="-10"/>
      <point x="242" y="-68"/>
    </contour>
    <contour>
      <point x="-252" y="414" type="line"/>
      <point x="-175" y="491" type="line"/>
      <point x="-204" y="529"/>
      <point x="-243" y="587"/>
      <point x="-272" y="635" type="curve"/>
      <point x="-334" y="574" type="line"/>
      <point x="-314" y="522"/>
      <point x="-286" y="460"/>
      <point x="-260" y="416" type="curve"/>
    </contour>
    <contour>
      <point x="458" y="196" type="curve"/>
      <point x="458" y="283" type="line"/>
      <point x="407" y="306"/>
      <point x="344" y="330"/>
      <point x="294" y="343" type="curve"/>
      <point x="287" y="338" type="line"/>
      <point x="287" y="230" type="line"/>
      <point x="335" y="223"/>
      <point x="403" y="209"/>
    </contour>
    <contour>
      <point x="-68" y="557" type="line"/>
      <point x="40" y="557" type="line"/>
      <point x="47" y="605"/>
      <point x="61" y="673"/>
      <point x="74" y="728" type="curve"/>
      <point x="-13" y="728" type="line"/>
      <point x="-36" y="677"/>
      <point x="-60" y="614"/>
      <point x="-73" y="564" type="curve"/>
    </contour>
  </outline>
</glyph>
<glyph name="uni048A" format="2">
  <advance width="600"/>
  <unicode hex="048A"/>
  <anchor x="309" y="-221" name="bottom"/>
  <anchor x="300" y="948" name="top"/>
  <anchor x="580" y="0" name="bottomright"/>
  <outline>
    <contour>
      <point x="371" y="-222" type="line"/>
      <point x="530" y="-222" type="line"/>
      <point x="600" y="134" type="line"/>
      <point x="466" y="134" type="line"/>
      <point x="426" y="0" type="line"/>
      <point x="440" y="0" type="line"/>
    </contour>
    <component base="afii10026"/>
    <component base="breve" yOffset="161"/>
  </outline>
</glyph>
<glyph name="uni048F" format="2">
  <advance width="600"/>
  <unicode hex="048F"/>
  <anchor x="300" y="-240" name="bottom"/>
  <anchor x="300" y="553" name="top"/>
  <anchor x="580" y="553" name="topright"/>
  <outline>
    <contour>
      <point x="447" y="-101" type="line"/>
      <point x="536" y="-45" type="line"/>
      <point x="335" y="278" type="line"/>
      <point x="245" y="221" type="line"/>
    </contour>
    <component base="p"/>
  </outline>
</glyph>
<glyph name="afii10098" format="2">
  <advance width="600"/>
  <unicode hex="0491"/>
  <anchor x="300" y="0" name="bottom"/>
  <anchor x="300" y="696" name="top"/>
  <anchor x="580" y="0" name="bottomright"/>
  <outline>
    <contour>
      <point x="378" y="420" type="line"/>
      <point x="532" y="420" type="line"/>
      <point x="532" y="696" type="line"/>
      <point x="378" y="696" type="line"/>
    </contour>
    <component base="afii10068"/>
  </outline>
</glyph>
<glyph name="uni0496" format="2">
  <advance width="600"/>
  <unicode hex="0496"/>
  <anchor x="300" y="-223" name="bottom"/>
  <anchor x="300" y="714" name="top"/>
  <anchor x="580" y="0" name="bottomright"/>
  <outline>
    <contour>
      <point x="461" y="-222" type="line"/>
      <point x="603" y="-222" type="line"/>
      <point x="603" y="158" type="line"/>
      <point x="442" y="158" type="line"/>
      <point x="461" y="0" type="line"/>
    </contour>
    <component base="afii10024"/>
  </outline>
</glyph>
<glyph name="uni0497" format="2">
  <advance width="600"/>
  <unicode hex="0497"/>
  <anchor x="300" y="-204" name="bottom"/>
  <anchor x="300" y="553" name="top"/>
  <anchor x="580" y="0" name="bottomright"/>
  <outline>
    <contour>
      <point x="457" y="-203" type="line"/>
      <point x="601" y="-203" type="line"/>
      <point x="601" y="142" type="line"/>
      <point x="470" y="142" type="line"/>
      <point x="457" y="0" type="line"/>
    </contour>
    <component base="afii10072"/>
  </outline>
</glyph>
<glyph name="uni049A" format="2">
  <advance width="600"/>
  <unicode hex="049A"/>
  <anchor x="300" y="-219" name="bottom"/>
  <anchor x="300" y="714" name="top"/>
  <anchor x="580" y="0" name="bottomright"/>
  <outline>
    <contour>
      <point x="410" y="-222" type="line"/>
      <point x="588" y="-222" type="line"/>
      <point x="588" y="158" type="line"/>
      <point x="427" y="158" type="line"/>
      <point x="410" y="0" type="line"/>
    </contour>
    <component base="afii10028"/>
  </outline>
</glyph>
<glyph name="uni049B" format="2">
  <advance width="600"/>
  <unicode hex="049B"/>
  <anchor x="300" y="-202" name="bottom"/>
  <anchor x="300" y="553" name="top"/>
  <anchor x="580" y="0" name="bottomright"/>
  <outline>
    <contour>
      <point x="441" y="-203" type="line"/>
      <point x="603" y="-203" type="line"/>
      <point x="603" y="142" type="line"/>
      <point x="462" y="142" type="line"/>
      <point x="441" y="0" type="line"/>
    </contour>
    <component base="afii10076"/>
  </outline>
</glyph>
<glyph name="uni049C" format="2">
  <advance width="600"/>
  <unicode hex="049C"/>
  <anchor x="300" y="0" name="bottom"/>
  <anchor x="300" y="714" name="top"/>
  <anchor x="580" y="0" name="bottomright"/>
  <outline>
    <contour>
      <point x="246" y="60" type="line"/>
      <point x="313" y="60" type="line"/>
      <point x="313" y="676" type="line"/>
      <point x="246" y="676" type="line"/>
    </contour>
    <component base="afii10028"/>
  </outline>
</glyph>
<glyph name="uni04B2" format="2">
  <advance width="600"/>
  <unicode hex="04B2"/>
  <anchor x="300" y="-219" name="bottom"/>
  <anchor x="300" y="714" name="top"/>
  <anchor x="580" y="714" name="topright"/>
  <outline>
    <contour>
      <point x="446" y="-222" type="line"/>
      <point x="594" y="-222" type="line"/>
      <point x="594" y="158" type="line"/>
      <point x="417" y="158" type="line"/>
      <point x="434" y="0" type="line"/>
      <point x="446" y="0" type="line"/>
    </contour>
    <component base="X"/>
  </outline>
</glyph>
<glyph name="uni04B3" format="2">
  <advance width="600"/>
  <unicode hex="04B3"/>
  <anchor x="300" y="-202" name="bottom"/>
  <anchor x="300" y="553" name="top"/>
  <anchor x="580" y="553" name="topright"/>
  <outline>
    <contour>
      <point x="435" y="-203" type="line"/>
      <point x="592" y="-203" type="line"/>
      <point x="592" y="142" type="line"/>
      <point x="371" y="142" type="line"/>
      <point x="405" y="0" type="line"/>
      <point x="435" y="0" type="line"/>
    </contour>
    <component base="x"/>
  </outline>
</glyph>
<glyph name="uni04B7" format="2">
  <advance width="600"/>
  <unicode hex="04B7"/>
  <anchor x="300" y="-204" name="bottom"/>
  <anchor x="300" y="553" name="top"/>
  <anchor x="580" y="0" name="bottomright"/>
  <outline>
    <contour>
      <point x="446" y="-203" type="line"/>
      <point x="596" y="-203" type="line"/>
      <point x="596" y="133" type="line"/>
      <point x="462" y="133" type="line"/>
      <point x="428" y="0" type="line"/>
      <point x="446" y="0" type="line"/>
    </contour>
    <component base="afii10089"/>
  </outline>
</glyph>
<glyph name="uni04B9" format="2">
  <advance width="600"/>
  <unicode hex="04B9"/>
  <anchor x="300" y="0" name="bottom"/>
  <anchor x="300" y="553" name="top"/>
  <anchor x="580" y="0" name="bottomright"/>
  <outline>
    <contour>
      <point x="263" y="62" type="line"/>
      <point x="338" y="62" type="line"/>
      <point x="338" y="404" type="line"/>
      <point x="263" y="404" type="line"/>
    </contour>
    <component base="afii10089"/>
  </outline>
</glyph>
<glyph name="uni04BE" format="2">
  <advance width="600"/>
  <unicode hex="04BE"/>
  <anchor x="383" y="-240" name="bottom"/>
  <anchor x="370" y="714" name="top"/>
  <outline>
    <contour>
      <point x="299" y="-217" type="line"/>
      <point x="461" y="-217" type="line"/>
      <point x="461" y="50" type="line"/>
      <point x="299" y="50" type="line"/>
    </contour>
    <component base="uni04BC"/>
  </outline>
</glyph>
<glyph name="uni04CA" format="2">
  <advance width="600"/>
  <unicode hex="04CA"/>
  <anchor x="300" y="-205" name="bottom"/>
  <anchor x="300" y="553" name="top"/>
  <anchor x="580" y="0" name="bottomright"/>
  <outline>
    <contour>
      <point x="376" y="-203" type="line"/>
      <point x="534" y="-203" type="line"/>
      <point x="610" y="123" type="line"/>
      <point x="443" y="123" type="line"/>
      <point x="422" y="0" type="line"/>
      <point x="447" y="0" type="line"/>
    </contour>
    <component base="afii10079"/>
  </outline>
</glyph>
<glyph name="uni04CB" format="2">
  <advance width="600"/>
  <unicode hex="04CB"/>
  <anchor x="300" y="-240" name="bottom"/>
  <anchor x="300" y="714" name="top"/>
  <anchor x="580" y="0" name="bottomright"/>
  <outline>
    <contour>
      <point x="343" y="-222" type="line"/>
      <point x="508" y="-222" type="line"/>
      <point x="508" y="0" type="line"/>
      <point x="534" y="0" type="line"/>
      <point x="493" y="150" type="line"/>
      <point x="343" y="150" type="line"/>
    </contour>
    <component base="afii10041"/>
  </outline>
</glyph>
<glyph name="uni04CE" format="2">
  <advance width="600"/>
  <unicode hex="04CE"/>
  <anchor x="300" y="-240" name="bottom"/>
  <anchor x="300" y="553" name="top"/>
  <outline>
    <contour>
      <point x="405" y="-203" type="line"/>
      <point x="543" y="-203" type="line"/>
      <point x="619" y="123" type="line"/>
      <point x="454" y="123" type="line"/>
      <point x="454" y="0" type="line"/>
      <point x="469" y="0" type="line"/>
    </contour>
    <component base="afii10078"/>
  </outline>
</glyph>
<glyph name="uni04F6" format="2">
  <advance width="600"/>
  <unicode hex="04F6"/>
  <anchor x="281" y="-240" name="bottom"/>
  <anchor x="300" y="714" name="top"/>
  <anchor x="580" y="0" name="bottomright"/>
  <outline>
    <contour>
      <point x="184" y="-222" type="line"/>
      <point x="372" y="-222" type="line"/>
      <point x="372" y="158" type="line"/>
      <point x="182" y="158" type="line"/>
      <point x="139" y="0" type="line"/>
      <point x="184" y="0" type="line"/>
    </contour>
    <component base="afii10020"/>
  </outline>
</glyph>
<glyph name="uni04FE" format="2">
  <advance width="600"/>
  <unicode hex="04FE"/>
  <anchor x="300" y="0" name="bottom"/>
  <anchor x="300" y="714" name="top"/>
  <anchor x="580" y="714" name="topright"/>
  <outline>
    <contour>
      <point x="47" y="294" type="line"/>
      <point x="549" y="294" type="line"/>
      <point x="549" y="439" type="line"/>
      <point x="47" y="439" type="line"/>
    </contour>
    <component base="X"/>
  </outline>
</glyph>
<glyph name="uni04FF" format="2">
  <advance width="600"/>
  <unicode hex="04FF"/>
  <anchor x="300" y="0" name="bottom"/>
  <anchor x="300" y="553" name="top"/>
  <anchor x="580" y="553" name="topright"/>
  <outline>
    <contour>
      <point x="44" y="217" type="line"/>
      <point x="553" y="217" type="line"/>
      <point x="553" y="349" type="line"/>
      <point x="44" y="349" type="line"/>
    </contour>
    <component base="x"/>
  </outline>
</glyph>
<glyph name="uni0513" format="2">
  <advance width="600"/>
  <unicode hex="0513"/>
  <anchor x="347" y="-240" name="bottom"/>
  <anchor x="348" y="553" name="top"/>
  <outline>
    <contour>
      <point x="457" y="-240" type="curve" smooth="yes"/>
      <point x="550" y="-240"/>
      <point x="609" y="-171"/>
      <point x="609" y="-35" type="curve" smooth="yes"/>
      <point x="609" y="135" type="line"/>
      <point x="500" y="135" type="line"/>
      <point x="438" y="0" type="line"/>
      <point x="462" y="0" type="line"/>
      <point x="462" y="-46" type="line" smooth="yes"/>
      <point x="462" y="-96"/>
      <point x="449" y="-116"/>
      <point x="408" y="-116" type="curve" smooth="yes"/>
      <point x="392" y="-116"/>
      <point x="377" y="-113"/>
      <point x="361" y="-107" type="curve"/>
      <point x="361" y="-229" type="line"/>
      <point x="382" y="-236"/>
      <point x="414" y="-240"/>
    </contour>
    <component base="afii10077"/>
  </outline>
</glyph>
<glyph name="uni0527" format="2">
  <advance width="600"/>
  <unicode hex="0527"/>
  <anchor x="300" y="-200" name="bottom"/>
  <anchor x="131" y="760" name="top"/>
  <anchor x="300" y="277" name="center"/>
  <anchor x="580" y="760" name="topright"/>
  <outline>
    <contour>
      <point x="446" y="-200" type="line"/>
      <point x="600" y="-200" type="line"/>
      <point x="600" y="129" type="line"/>
      <point x="401" y="129" type="line"/>
      <point x="401" y="0" type="line"/>
      <point x="446" y="0" type="line"/>
    </contour>
    <component base="h"/>
  </outline>
</glyph>
<glyph name="uni052A" format="2">
  <advance width="1200"/>
  <unicode hex="052A"/>
  <anchor x="600" y="-216" name="bottom"/>
  <anchor x="600" y="714" name="top"/>
  <anchor x="1216" y="0" name="bottomright"/>
  <outline>
    <contour>
      <point x="425" y="300" type="line"/>
      <point x="767" y="300" type="line"/>
      <point x="767" y="444" type="line"/>
      <point x="425" y="444" type="line"/>
    </contour>
    <component base="afii10021"/>
    <component base="afii10028" xOffset="636"/>
  </outline>
</glyph>
<glyph name="uni052B" format="2">
  <advance width="1200"/>
  <unicode hex="052B"/>
  <anchor x="600" y="-200" name="bottom"/>
  <anchor x="600" y="553" name="top"/>
  <anchor x="1180" y="0" name="bottomright"/>
  <outline>
    <contour>
      <point x="432" y="219" type="line"/>
      <point x="714" y="219" type="line"/>
      <point x="714" y="349" type="line"/>
      <point x="432" y="349" type="line"/>
    </contour>
    <component base="afii10069"/>
    <component base="afii10076" xOffset="600"/>
  </outline>
</glyph>
<glyph name="uni052E" format="2">
  <advance width="600"/>
  <unicode hex="052E"/>
  <anchor x="288" y="-222" name="bottom"/>
  <anchor x="355" y="714" name="top"/>
  <outline>
    <contour>
      <point x="454" y="-222" type="line"/>
      <point x="619" y="-222" type="line"/>
      <point x="619" y="158" type="line"/>
      <point x="438" y="158" type="line"/>
      <point x="438" y="0" type="line"/>
      <point x="454" y="0" type="line"/>
    </contour>
    <component base="afii10029"/>
  </outline>
</glyph>
<glyph name="uni052F" format="2">
  <advance width="600"/>
  <unicode hex="052F"/>
  <anchor x="299" y="-200" name="bottom"/>
  <anchor x="349" y="553" name="top"/>
  <outline>
    <contour>
      <point x="446" y="-200" type="line"/>
      <point x="600" y="-200" type="line"/>
      <point x="600" y="129" type="line"/>
      <point x="401" y="129" type="line"/>
      <point x="401" y="0" type="line"/>
      <point x="446" y="0" type="line"/>
    </contour>
    <component base="afii10077"/>
  </outline>
</glyph>
<glyph name="uni1ABA" format="2">
  <unicode hex="1ABA"/>
  <anchor x="0" y="0" name="_bottom"/>
  <anchor x="0" y="-259" name="bottom"/>
  <outline>
    <contour>
      <point x="17" y="-178" type="line"/>
      <point x="120" y="40" type="line"/>
      <point x="12" y="40" type="line"/>
      <point x="-75" y="-144" type="line"/>
    </contour>
    <contour>
      <point x="-34" y="-259" type="curve" smooth="yes"/>
      <point x="13" y="-259"/>
      <point x="54" y="-232"/>
      <point x="54" y="-176" type="curve" smooth="yes"/>
      <point x="54" y="-122"/>
      <point x="14" y="-92"/>
      <point x="-35" y="-92" type="curve" smooth="yes"/>
      <point x="-79" y="-92"/>
      <point x="-121" y="-120"/>
      <point x="-121" y="-176" type="curve" smooth="yes"/>
      <point x="-121" y="-232"/>
      <point x="-83" y="-259"/>
    </contour>
  </outline>
</glyph>
<glyph name="uni1D00" format="2">
  <advance width="600"/>
  <unicode hex="1D00"/>
  <anchor x="300" y="0" name="bottom"/>
  <anchor x="300" y="553" name="top"/>
  <outline>
    <contour>
      <point x="22" y="0" type="line"/>
      <point x="172" y="0" type="line"/>
      <point x="205" y="114" type="line"/>
      <point x="395" y="114" type="line"/>
      <point x="428" y="0" type="line"/>
      <point x="578" y="0" type="line"/>
      <point x="388" y="553" type="line"/>
      <point x="210" y="553" type="line"/>
    </contour>
    <contour>
      <point x="236" y="225" type="line"/>
      <point x="267" y="329" type="line" smooth="yes"/>
      <point x="275" y="357"/>
      <point x="292" y="427"/>
      <point x="300" y="462" type="curve"/>
      <point x="307" y="427"/>
      <point x="327" y="357"/>
      <point x="335" y="330" type="curve" smooth="yes"/>
      <point x="365" y="225" type="line"/>
    </contour>
  </outline>
</glyph>
<glyph name="uni1D03" format="2">
  <advance width="600"/>
  <unicode hex="1D03"/>
  <anchor x="300" y="0" name="bottom"/>
  <anchor x="300" y="553" name="top"/>
  <outline>
    <contour>
      <point x="32" y="236" type="line"/>
      <point x="567" y="236" type="line"/>
      <point x="567" y="338" type="line"/>
      <point x="32" y="338" type="line"/>
    </contour>
    <component base="afii10067"/>
  </outline>
</glyph>
<glyph name="uni1D04" format="2">
  <advance width="600"/>
  <unicode hex="1D04"/>
  <anchor x="370" y="0" name="bottom"/>
  <anchor x="370" y="557" name="top"/>
  <outline>
    <contour>
      <point x="360" y="-8" type="curve" smooth="yes"/>
      <point x="419" y="-8"/>
      <point x="467" y="2"/>
      <point x="516" y="22" type="curve"/>
      <point x="516" y="146" type="line"/>
      <point x="467" y="127"/>
      <point x="422" y="114"/>
      <point x="375" y="114" type="curve" smooth="yes"/>
      <point x="293" y="114"/>
      <point x="255" y="170"/>
      <point x="255" y="273" type="curve" smooth="yes"/>
      <point x="255" y="374"/>
      <point x="297" y="436"/>
      <point x="369" y="436" type="curve" smooth="yes"/>
      <point x="414" y="436"/>
      <point x="455" y="420"/>
      <point x="496" y="401" type="curve"/>
      <point x="539" y="519" type="line"/>
      <point x="484" y="544"/>
      <point x="424" y="557"/>
      <point x="370" y="557" type="curve" smooth="yes"/>
      <point x="198" y="557"/>
      <point x="103" y="440"/>
      <point x="103" y="273" type="curve" smooth="yes"/>
      <point x="103" y="106"/>
      <point x="182" y="-8"/>
    </contour>
  </outline>
</glyph>
<glyph name="uni1D05" format="2">
  <advance width="600"/>
  <unicode hex="1D05"/>
  <anchor x="300" y="0" name="bottom"/>
  <anchor x="300" y="553" name="top"/>
  <outline>
    <contour>
      <point x="80" y="0" type="line"/>
      <point x="252" y="0" type="line" smooth="yes"/>
      <point x="435" y="0"/>
      <point x="549" y="95"/>
      <point x="549" y="284" type="curve" smooth="yes"/>
      <point x="549" y="455"/>
      <point x="444" y="553"/>
      <point x="266" y="553" type="curve" smooth="yes"/>
      <point x="80" y="553" type="line"/>
    </contour>
    <contour>
      <point x="218" y="111" type="line"/>
      <point x="218" y="444" type="line"/>
      <point x="269" y="444" type="line" smooth="yes"/>
      <point x="359" y="444"/>
      <point x="406" y="387"/>
      <point x="406" y="279" type="curve" smooth="yes"/>
      <point x="406" y="166"/>
      <point x="359" y="111"/>
      <point x="258" y="111" type="curve" smooth="yes"/>
    </contour>
  </outline>
</glyph>
<glyph name="uni1D07" format="2">
  <advance width="600"/>
  <unicode hex="1D07"/>
  <anchor x="306" y="0" name="bottom"/>
  <anchor x="306" y="553" name="top"/>
  <outline>
    <contour>
      <point x="126" y="0" type="line"/>
      <point x="474" y="0" type="line"/>
      <point x="474" y="111" type="line"/>
      <point x="264" y="111" type="line"/>
      <point x="264" y="230" type="line"/>
      <point x="460" y="230" type="line"/>
      <point x="460" y="339" type="line"/>
      <point x="264" y="339" type="line"/>
      <point x="264" y="444" type="line"/>
      <point x="474" y="444" type="line"/>
      <point x="474" y="553" type="line"/>
      <point x="126" y="553" type="line"/>
    </contour>
  </outline>
</glyph>
<glyph name="uni1D0B" format="2">
  <advance width="600"/>
  <unicode hex="1D0B"/>
  <anchor x="300" y="0" name="bottom"/>
  <anchor x="300" y="553" name="top"/>
  <outline>
    <contour>
      <point x="90" y="0" type="line"/>
      <point x="228" y="0" type="line"/>
      <point x="228" y="191" type="line"/>
      <point x="276" y="220" type="line"/>
      <point x="399" y="0" type="line"/>
      <point x="556" y="0" type="line"/>
      <point x="374" y="305" type="line"/>
      <point x="557" y="553" type="line"/>
      <point x="405" y="553" type="line"/>
      <point x="275" y="374" type="line" smooth="yes"/>
      <point x="259" y="353"/>
      <point x="242" y="330"/>
      <point x="228" y="307" type="curve"/>
      <point x="228" y="553" type="line"/>
      <point x="90" y="553" type="line"/>
    </contour>
  </outline>
</glyph>
<glyph name="uni1D0D" format="2">
  <advance width="600"/>
  <unicode hex="1D0D"/>
  <anchor x="300" y="0" name="bottom"/>
  <anchor x="300" y="553" name="top"/>
  <outline>
    <contour>
      <point x="40" y="0" type="line"/>
      <point x="177" y="0" type="line"/>
      <point x="177" y="123" type="line" smooth="yes"/>
      <point x="177" y="157"/>
      <point x="146" y="404"/>
      <point x="146" y="428" type="curve"/>
      <point x="150" y="428" type="line"/>
      <point x="216" y="122" type="line"/>
      <point x="382" y="122" type="line"/>
      <point x="446" y="427" type="line"/>
      <point x="450" y="427" type="line"/>
      <point x="450" y="405"/>
      <point x="421" y="157"/>
      <point x="421" y="124" type="curve" smooth="yes"/>
      <point x="421" y="0" type="line"/>
      <point x="560" y="0" type="line"/>
      <point x="560" y="553" type="line"/>
      <point x="353" y="553" type="line"/>
      <point x="299" y="239" type="line"/>
      <point x="296" y="239" type="line"/>
      <point x="245" y="553" type="line"/>
      <point x="40" y="553" type="line"/>
    </contour>
  </outline>
</glyph>
<glyph name="uni1D18" format="2">
  <advance width="600"/>
  <unicode hex="1D18"/>
  <anchor x="300" y="0" name="bottom"/>
  <anchor x="300" y="553" name="top"/>
  <outline>
    <contour>
      <point x="128" y="0" type="line"/>
      <point x="266" y="0" type="line"/>
      <point x="266" y="190" type="line"/>
      <point x="312" y="190" type="line" smooth="yes"/>
      <point x="472" y="190"/>
      <point x="525" y="282"/>
      <point x="525" y="381" type="curve" smooth="yes"/>
      <point x="525" y="490"/>
      <point x="458" y="553"/>
      <point x="316" y="553" type="curve" smooth="yes"/>
      <point x="128" y="553" type="line"/>
    </contour>
    <contour>
      <point x="266" y="299" type="line"/>
      <point x="266" y="444" type="line"/>
      <point x="311" y="444" type="line" smooth="yes"/>
      <point x="363" y="444"/>
      <point x="385" y="421"/>
      <point x="385" y="378" type="curve" smooth="yes"/>
      <point x="385" y="325"/>
      <point x="348" y="299"/>
      <point x="298" y="299" type="curve" smooth="yes"/>
    </contour>
  </outline>
</glyph>
<glyph name="uni1D1C" format="2">
  <advance width="600"/>
  <unicode hex="1D1C"/>
  <anchor x="300" y="0" name="bottom"/>
  <anchor x="300" y="553" name="top"/>
  <outline>
    <contour>
      <point x="297" y="-9" type="curve" smooth="yes"/>
      <point x="463" y="-9"/>
      <point x="533" y="89"/>
      <point x="533" y="231" type="curve" smooth="yes"/>
      <point x="533" y="553" type="line"/>
      <point x="382" y="553" type="line"/>
      <point x="382" y="234" type="line" smooth="yes"/>
      <point x="382" y="149"/>
      <point x="357" y="114"/>
      <point x="301" y="114" type="curve" smooth="yes"/>
      <point x="244" y="114"/>
      <point x="216" y="149"/>
      <point x="216" y="234" type="curve" smooth="yes"/>
      <point x="216" y="553" type="line"/>
      <point x="66" y="553" type="line"/>
      <point x="66" y="229" type="line" smooth="yes"/>
      <point x="66" y="85"/>
      <point x="135" y="-9"/>
    </contour>
  </outline>
</glyph>
<glyph name="uni1D24" format="2">
  <advance width="600"/>
  <unicode hex="1D24"/>
  <anchor x="310" y="0" name="bottom"/>
  <anchor x="307" y="553" name="top"/>
  <outline>
    <contour>
      <point x="306" y="-10" type="curve" smooth="yes"/>
      <point x="375" y="-10"/>
      <point x="440" y="2"/>
      <point x="497" y="25" type="curve"/>
      <point x="497" y="160" type="line"/>
      <point x="435" y="129"/>
      <point x="371" y="122"/>
      <point x="338" y="122" type="curve" smooth="yes"/>
      <point x="281" y="122"/>
      <point x="267" y="142"/>
      <point x="267" y="163" type="curve" smooth="yes"/>
      <point x="267" y="192"/>
      <point x="294" y="204"/>
      <point x="363" y="210" type="curve"/>
      <point x="363" y="263" type="line"/>
      <point x="474" y="277"/>
      <point x="519" y="336"/>
      <point x="519" y="409" type="curve" smooth="yes"/>
      <point x="519" y="508"/>
      <point x="438" y="560"/>
      <point x="310" y="560" type="curve" smooth="yes"/>
      <point x="235" y="560"/>
      <point x="170" y="542"/>
      <point x="107" y="514" type="curve"/>
      <point x="148" y="403" type="line"/>
      <point x="200" y="421"/>
      <point x="248" y="430"/>
      <point x="288" y="430" type="curve" smooth="yes"/>
      <point x="323" y="430"/>
      <point x="343" y="423"/>
      <point x="343" y="401" type="curve" smooth="yes"/>
      <point x="343" y="374"/>
      <point x="314" y="361"/>
      <point x="255" y="355" type="curve"/>
      <point x="255" y="300" type="line"/>
      <point x="134" y="286"/>
      <point x="80" y="229"/>
      <point x="80" y="146" type="curve" smooth="yes"/>
      <point x="80" y="57"/>
      <point x="142" y="-10"/>
    </contour>
  </outline>
</glyph>
<glyph name="uni1D6E" format="2">
  <advance width="600"/>
  <unicode hex="1D6E"/>
  <anchor x="312" y="0" name="bottom"/>
  <anchor x="417" y="763" name="top"/>
  <anchor x="612" y="765" name="topright"/>
  <outline>
    <contour>
      <point x="59" y="161" type="curve"/>
      <point x="151" y="161" type="line"/>
      <point x="156" y="201"/>
      <point x="166" y="209"/>
      <point x="199" y="209" type="curve" smooth="yes"/>
      <point x="263" y="209"/>
      <point x="326" y="162"/>
      <point x="404" y="162" type="curve" smooth="yes"/>
      <point x="475" y="162"/>
      <point x="521" y="215"/>
      <point x="525" y="329" type="curve"/>
      <point x="433" y="329" type="line"/>
      <point x="428" y="299"/>
      <point x="423" y="281"/>
      <point x="384" y="281" type="curve" smooth="yes"/>
      <point x="318" y="281"/>
      <point x="265" y="328"/>
      <point x="184" y="328" type="curve" smooth="yes"/>
      <point x="95" y="328"/>
      <point x="63" y="258"/>
    </contour>
    <component base="f" xOffset="12"/>
  </outline>
</glyph>
<glyph name="uni1D6F" format="2">
  <advance width="600"/>
  <unicode hex="1D6F"/>
  <anchor x="308" y="0" name="bottom"/>
  <anchor x="338" y="553" name="top"/>
  <anchor x="580" y="553" name="topright"/>
  <outline>
    <contour>
      <point x="-75" y="163" type="curve"/>
      <point x="-2" y="163" type="line"/>
      <point x="-2" y="219"/>
      <point x="17" y="237"/>
      <point x="63" y="237" type="curve"/>
      <point x="215" y="237"/>
      <point x="368" y="164"/>
      <point x="542" y="164" type="curve"/>
      <point x="625" y="164"/>
      <point x="674" y="219"/>
      <point x="676" y="325" type="curve"/>
      <point x="603" y="325" type="line"/>
      <point x="603" y="272"/>
      <point x="577" y="259"/>
      <point x="533" y="259" type="curve"/>
      <point x="406" y="259"/>
      <point x="187" y="341"/>
      <point x="60" y="341" type="curve"/>
      <point x="-17" y="341"/>
      <point x="-75" y="273"/>
    </contour>
    <component base="m"/>
  </outline>
</glyph>
<glyph name="uni1D76" format="2">
  <advance width="600"/>
  <unicode hex="1D76"/>
  <anchor x="307" y="0" name="bottom"/>
  <anchor x="307" y="553" name="top"/>
  <anchor x="580" y="553" name="topright"/>
  <outline>
    <contour>
      <point x="-2" y="191" type="curve"/>
      <point x="90" y="191" type="line"/>
      <point x="95" y="231"/>
      <point x="115" y="249"/>
      <point x="158" y="249" type="curve" smooth="yes"/>
      <point x="222" y="249"/>
      <point x="378" y="192"/>
      <point x="466" y="192" type="curve" smooth="yes"/>
      <point x="547" y="192"/>
      <point x="593" y="245"/>
      <point x="597" y="359" type="curve"/>
      <point x="505" y="359" type="line"/>
      <point x="500" y="329"/>
      <point x="495" y="301"/>
      <point x="446" y="301" type="curve" smooth="yes"/>
      <point x="370" y="301"/>
      <point x="224" y="358"/>
      <point x="143" y="358" type="curve" smooth="yes"/>
      <point x="44" y="358"/>
      <point x="2" y="288"/>
    </contour>
    <component base="z"/>
  </outline>
</glyph>
<glyph name="uni1D7B" format="2">
  <advance width="600"/>
  <unicode hex="1D7B"/>
  <anchor x="300" y="0" name="bottom"/>
  <anchor x="300" y="553" name="top"/>
  <outline>
    <contour>
      <point x="94" y="215" type="line"/>
      <point x="506" y="215" type="line"/>
      <point x="506" y="343" type="line"/>
      <point x="94" y="343" type="line"/>
    </contour>
    <component base="uni026A"/>
  </outline>
</glyph>
<glyph name="uni1D7C" format="2">
  <advance width="600"/>
  <unicode hex="1D7C"/>
  <anchor x="373" y="0" name="bottom"/>
  <anchor x="274" y="553" name="top"/>
  <outline>
    <contour>
      <point x="67" y="265" type="line"/>
      <point x="479" y="265" type="line"/>
      <point x="479" y="393" type="line"/>
      <point x="67" y="393" type="line"/>
    </contour>
    <component base="iota"/>
  </outline>
</glyph>
<glyph name="uni1D7F" format="2">
  <advance width="600"/>
  <unicode hex="1D7F"/>
  <anchor x="300" y="0" name="bottom"/>
  <anchor x="300" y="553" name="top"/>
  <outline>
    <contour>
      <point x="0" y="218" type="line"/>
      <point x="600" y="218" type="line"/>
      <point x="600" y="332" type="line"/>
      <point x="0" y="332" type="line"/>
    </contour>
    <component base="uni028A"/>
  </outline>
</glyph>
<glyph name="uni1D85" format="2">
  <advance width="600"/>
  <unicode hex="1D85"/>
  <anchor x="318" y="0" name="bottom"/>
  <anchor x="318" y="390" name="center"/>
  <anchor x="300" y="760" name="top"/>
  <anchor x="508" y="760" name="topright"/>
  <outline>
    <contour>
      <point x="365" y="-256" type="curve" smooth="yes"/>
      <point x="507" y="-256"/>
      <point x="560" y="-161"/>
      <point x="560" y="-58" type="curve" smooth="yes"/>
      <point x="560" y="108" type="line"/>
      <point x="380" y="108" type="line"/>
      <point x="380" y="0" type="line"/>
      <point x="400" y="0" type="line"/>
      <point x="400" y="-25" type="line" smooth="yes"/>
      <point x="400" y="-100"/>
      <point x="364" y="-119"/>
      <point x="323" y="-119" type="curve" smooth="yes"/>
      <point x="301" y="-119"/>
      <point x="286" y="-117"/>
      <point x="263" y="-110" type="curve"/>
      <point x="263" y="-244" type="line"/>
      <point x="288" y="-252"/>
      <point x="332" y="-256"/>
    </contour>
    <component base="l"/>
  </outline>
</glyph>
<glyph name="uni1D89" format="2">
  <advance width="600"/>
  <unicode hex="1D89"/>
  <anchor x="270" y="0" name="bottom"/>
  <anchor x="314" y="553" name="top"/>
  <anchor x="580" y="553" name="topright"/>
  <outline>
    <contour>
      <point x="295" y="-256" type="curve" smooth="yes"/>
      <point x="437" y="-256"/>
      <point x="490" y="-161"/>
      <point x="490" y="-58" type="curve" smooth="yes"/>
      <point x="490" y="118" type="line"/>
      <point x="310" y="118" type="line"/>
      <point x="310" y="0" type="line"/>
      <point x="330" y="0" type="line"/>
      <point x="330" y="-25" type="line" smooth="yes"/>
      <point x="330" y="-100"/>
      <point x="294" y="-119"/>
      <point x="253" y="-119" type="curve" smooth="yes"/>
      <point x="231" y="-119"/>
      <point x="216" y="-117"/>
      <point x="193" y="-110" type="curve"/>
      <point x="193" y="-244" type="line"/>
      <point x="218" y="-252"/>
      <point x="262" y="-256"/>
    </contour>
    <component base="r"/>
  </outline>
</glyph>
<glyph name="uni1D8A" format="2">
  <advance width="600"/>
  <unicode hex="1D8A"/>
  <anchor x="305" y="0" name="bottom"/>
  <anchor x="305" y="553" name="top"/>
  <anchor x="580" y="553" name="topright"/>
  <outline>
    <contour>
      <point x="270" y="-256" type="curve" smooth="yes"/>
      <point x="412" y="-256"/>
      <point x="465" y="-161"/>
      <point x="465" y="-58" type="curve" smooth="yes"/>
      <point x="465" y="138" type="line"/>
      <point x="285" y="108" type="line"/>
      <point x="285" y="0" type="line"/>
      <point x="305" y="0" type="line"/>
      <point x="305" y="-25" type="line" smooth="yes"/>
      <point x="305" y="-100"/>
      <point x="269" y="-119"/>
      <point x="228" y="-119" type="curve" smooth="yes"/>
      <point x="206" y="-119"/>
      <point x="191" y="-117"/>
      <point x="168" y="-110" type="curve"/>
      <point x="168" y="-244" type="line"/>
      <point x="193" y="-252"/>
      <point x="237" y="-256"/>
    </contour>
    <component base="s"/>
  </outline>
</glyph>
<glyph name="uni1D8B" format="2">
  <advance width="600"/>
  <unicode hex="1D8B"/>
  <anchor x="158" y="-240" name="bottom"/>
  <anchor x="293" y="763" name="top"/>
  <outline>
    <contour>
      <point x="301" y="0" type="line"/>
      <point x="431" y="0" type="line"/>
      <point x="431" y="138" type="line"/>
      <point x="301" y="138" type="line"/>
    </contour>
    <component base="uni0283" xOffset="-83"/>
    <component base="cyrillicbighooklc" xScale="0.904" xOffset="178"/>
  </outline>
</glyph>
<glyph name="uni1D8C" format="2">
  <advance width="600"/>
  <unicode hex="1D8C"/>
  <anchor x="300" y="0" name="bottom"/>
  <anchor x="300" y="553" name="top"/>
  <anchor x="580" y="553" name="topright"/>
  <outline>
    <contour>
      <point x="341" y="0" type="line"/>
      <point x="473" y="0" type="line"/>
      <point x="473" y="138" type="line"/>
      <point x="341" y="138" type="line"/>
    </contour>
    <component base="v"/>
    <component base="cyrillicbighooklc" xOffset="110"/>
  </outline>
</glyph>
<glyph name="uni1D8F" format="2">
  <advance width="600"/>
  <unicode hex="1D8F"/>
  <anchor x="306" y="0" name="bottom"/>
  <anchor x="540" y="10" name="ogonek"/>
  <anchor x="309" y="553" name="top"/>
  <anchor x="580" y="553" name="topright"/>
  <outline>
    <contour>
      <point x="596" y="-251" type="curve" smooth="yes"/>
      <point x="631" y="-251"/>
      <point x="667" y="-245"/>
      <point x="695" y="-237" type="curve"/>
      <point x="695" y="-110" type="line"/>
      <point x="678" y="-116"/>
      <point x="663" y="-119"/>
      <point x="646" y="-119" type="curve" smooth="yes"/>
      <point x="613" y="-119"/>
      <point x="597" y="-106"/>
      <point x="597" y="-65" type="curve" smooth="yes"/>
      <point x="597" y="140" type="line"/>
      <point x="415" y="140" type="line"/>
      <point x="415" y="0" type="line"/>
      <point x="448" y="0" type="line"/>
      <point x="448" y="-81" type="line" smooth="yes"/>
      <point x="448" y="-198"/>
      <point x="504" y="-251"/>
    </contour>
    <component base="a"/>
  </outline>
</glyph>
<glyph name="uni1D90" format="2">
  <advance width="600"/>
  <unicode hex="1D90"/>
  <anchor x="300" y="0" name="bottom"/>
  <anchor x="300" y="553" name="top"/>
  <outline>
    <contour>
      <point x="594" y="-251" type="curve" smooth="yes"/>
      <point x="629" y="-251"/>
      <point x="665" y="-245"/>
      <point x="693" y="-237" type="curve"/>
      <point x="693" y="-110" type="line"/>
      <point x="676" y="-116"/>
      <point x="661" y="-119"/>
      <point x="644" y="-119" type="curve" smooth="yes"/>
      <point x="611" y="-119"/>
      <point x="595" y="-106"/>
      <point x="595" y="-65" type="curve" smooth="yes"/>
      <point x="595" y="135" type="line"/>
      <point x="446" y="10" type="line"/>
      <point x="446" y="-81" type="line" smooth="yes"/>
      <point x="446" y="-198"/>
      <point x="502" y="-251"/>
    </contour>
    <component base="uni0251"/>
  </outline>
</glyph>
<glyph name="uni1D91" format="2">
  <advance width="600"/>
  <unicode hex="1D91"/>
  <anchor x="300" y="0" name="bottom"/>
  <anchor x="300" y="770" name="top"/>
  <outline>
    <contour>
      <point x="554" y="-251" type="curve" smooth="yes"/>
      <point x="589" y="-251"/>
      <point x="625" y="-245"/>
      <point x="653" y="-237" type="curve"/>
      <point x="653" y="-110" type="line"/>
      <point x="636" y="-116"/>
      <point x="621" y="-119"/>
      <point x="604" y="-119" type="curve" smooth="yes"/>
      <point x="571" y="-119"/>
      <point x="555" y="-106"/>
      <point x="555" y="-65" type="curve" smooth="yes"/>
      <point x="555" y="102" type="line"/>
      <point x="406" y="77" type="line"/>
      <point x="406" y="-81" type="line" smooth="yes"/>
      <point x="406" y="-198"/>
      <point x="462" y="-251"/>
    </contour>
    <component base="uni0257"/>
  </outline>
</glyph>
<glyph name="uni1D93" format="2">
  <advance width="600"/>
  <unicode hex="1D93"/>
  <anchor x="326" y="0" name="bottom"/>
  <anchor x="300" y="553" name="top"/>
  <outline>
    <contour>
      <point x="540" y="-251" type="curve" smooth="yes"/>
      <point x="575" y="-251"/>
      <point x="611" y="-245"/>
      <point x="639" y="-237" type="curve"/>
      <point x="639" y="-110" type="line"/>
      <point x="622" y="-116"/>
      <point x="607" y="-119"/>
      <point x="590" y="-119" type="curve" smooth="yes"/>
      <point x="557" y="-119"/>
      <point x="541" y="-106"/>
      <point x="541" y="-65" type="curve" smooth="yes"/>
      <point x="541" y="144" type="line"/>
      <point x="398" y="10" type="line"/>
      <point x="398" y="-81" type="line" smooth="yes"/>
      <point x="398" y="-198"/>
      <point x="452" y="-251"/>
    </contour>
    <component base="epsilon"/>
  </outline>
</glyph>
<glyph name="uni1D96" format="2">
  <advance width="600"/>
  <unicode hex="1D96"/>
  <anchor x="311" y="0" name="bottom"/>
  <anchor x="312" y="295" name="center"/>
  <anchor x="313" y="777" name="top"/>
  <anchor x="510" y="777" name="topright"/>
  <outline>
    <contour>
      <point x="559" y="-251" type="curve" smooth="yes"/>
      <point x="594" y="-251"/>
      <point x="630" y="-245"/>
      <point x="658" y="-237" type="curve"/>
      <point x="658" y="-110" type="line"/>
      <point x="641" y="-116"/>
      <point x="626" y="-119"/>
      <point x="609" y="-119" type="curve" smooth="yes"/>
      <point x="576" y="-119"/>
      <point x="560" y="-106"/>
      <point x="560" y="-65" type="curve" smooth="yes"/>
      <point x="560" y="102" type="line"/>
      <point x="417" y="10" type="line"/>
      <point x="417" y="-81" type="line" smooth="yes"/>
      <point x="417" y="-198"/>
      <point x="471" y="-251"/>
    </contour>
    <component base="i"/>
  </outline>
</glyph>
<glyph name="uni1E10" format="2">
  <advance width="600"/>
  <unicode hex="1E10"/>
  <anchor x="257" y="-240" name="bottom"/>
  <anchor x="300" y="714" name="top"/>
  <anchor x="310" y="357" name="center"/>
  <anchor x="600" y="714" name="topright"/>
  <outline>
    <contour>
      <point x="246" y="-240" type="curve" smooth="yes"/>
      <point x="336" y="-240"/>
      <point x="384" y="-195"/>
      <point x="384" y="-128" type="curve" smooth="yes"/>
      <point x="384" y="-70"/>
      <point x="347" y="-43"/>
      <point x="291" y="-32" type="curve"/>
      <point x="303" y="5" type="line"/>
      <point x="217" y="5" type="line"/>
      <point x="185" y="-76" type="line"/>
      <point x="231" y="-81"/>
      <point x="254" y="-94"/>
      <point x="254" y="-117" type="curve" smooth="yes"/>
      <point x="254" y="-135"/>
      <point x="240" y="-145"/>
      <point x="214" y="-145" type="curve" smooth="yes"/>
      <point x="197" y="-145"/>
      <point x="177" y="-141"/>
      <point x="155" y="-135" type="curve"/>
      <point x="155" y="-227" type="line"/>
      <point x="180" y="-235"/>
      <point x="216" y="-240"/>
    </contour>
    <component base="D"/>
  </outline>
</glyph>
<glyph name="longsdiagonalstroke" format="2">
  <advance width="600"/>
  <unicode hex="1E9C"/>
  <anchor x="279" y="0" name="bottom"/>
  <anchor x="300" y="765" name="top"/>
  <outline>
    <contour>
      <point x="135" y="225" type="line"/>
      <point x="487" y="399" type="line"/>
      <point x="434" y="509" type="line"/>
      <point x="82" y="335" type="line"/>
    </contour>
    <component base="longs"/>
  </outline>
</glyph>
<glyph name="uni1F3E" format="2">
  <advance width="600"/>
  <unicode hex="1F3E"/>
  <anchor x="425" y="0" name="bottom"/>
  <anchor x="425" y="714" name="top"/>
  <outline>
    <contour>
      <point x="286" y="0" type="line"/>
      <point x="566" y="0" type="line"/>
      <point x="566" y="125" type="line"/>
      <point x="510" y="141" type="line"/>
      <point x="510" y="573" type="line"/>
      <point x="566" y="589" type="line"/>
      <point x="566" y="714" type="line"/>
      <point x="286" y="714" type="line"/>
      <point x="286" y="589" type="line"/>
      <point x="341" y="573" type="line"/>
      <point x="341" y="141" type="line"/>
      <point x="286" y="125" type="line"/>
    </contour>
    <component base="uni1FCF" xScale="0.869" xOffset="-128" yOffset="-80"/>
  </outline>
</glyph>
<glyph name="uni1F59" format="2">
  <advance width="600"/>
  <unicode hex="1F59"/>
  <anchor x="365" y="0" name="bottom"/>
  <anchor x="365" y="714" name="top"/>
  <outline>
    <contour>
      <point x="287" y="0" type="line"/>
      <point x="444" y="0" type="line"/>
      <point x="444" y="276" type="line"/>
      <point x="601" y="714" type="line"/>
      <point x="438" y="714" type="line"/>
      <point x="367" y="460" type="line"/>
      <point x="294" y="714" type="line"/>
      <point x="128" y="714" type="line"/>
      <point x="287" y="276" type="line"/>
    </contour>
    <component base="uni1FFE" xOffset="-252" yOffset="-82"/>
  </outline>
</glyph>
<glyph name="uni1FDB" format="2">
  <advance width="600"/>
  <unicode hex="1FDB"/>
  <anchor x="382" y="0" name="bottom"/>
  <anchor x="382" y="714" name="top"/>
  <outline>
    <contour>
      <point x="193" y="0" type="line"/>
      <point x="573" y="0" type="line"/>
      <point x="573" y="125" type="line"/>
      <point x="467" y="141" type="line"/>
      <point x="467" y="573" type="line"/>
      <point x="573" y="589" type="line"/>
      <point x="573" y="714" type="line"/>
      <point x="193" y="714" type="line"/>
      <point x="193" y="589" type="line"/>
      <point x="298" y="573" type="line"/>
      <point x="298" y="141" type="line"/>
      <point x="193" y="125" type="line"/>
    </contour>
    <component base="uni1FFD" xOffset="-288" yOffset="-59"/>
  </outline>
</glyph>
<glyph name="uni1FEF" format="2">
  <advance width="600"/>
  <unicode hex="1FEF"/>
  <anchor x="300" y="553" name="_top"/>
  <anchor x="300" y="771" name="top"/>
  <outline>
    <contour>
      <point x="260" y="606" type="curve"/>
      <point x="351" y="606" type="line"/>
      <point x="351" y="620" type="line"/>
      <point x="339" y="655"/>
      <point x="323" y="722"/>
      <point x="316" y="771" type="curve"/>
      <point x="162" y="771" type="line"/>
      <point x="162" y="758" type="line"/>
      <point x="186" y="708"/>
      <point x="224" y="649"/>
    </contour>
  </outline>
</glyph>
<glyph name="uni1FFD" format="2">
  <advance width="600"/>
  <unicode hex="1FFD"/>
  <anchor x="300" y="553" name="_top"/>
  <anchor x="300" y="774" name="top"/>
  <outline>
    <contour>
      <point x="240" y="606" type="line"/>
      <point x="345" y="606" type="line"/>
      <point x="391" y="650"/>
      <point x="437" y="708"/>
      <point x="467" y="759" type="curve"/>
      <point x="467" y="774" type="line"/>
      <point x="299" y="774" type="line"/>
      <point x="289" y="727"/>
      <point x="260" y="657"/>
      <point x="240" y="623" type="curve"/>
    </contour>
  </outline>
</glyph>
<glyph name="uni2012" format="2">
  <advance width="600"/>
  <unicode hex="2012"/>
  <outline>
    <contour>
      <point x="49" y="277" type="line"/>
      <point x="550" y="277" type="line"/>
      <point x="550" y="419" type="line"/>
      <point x="49" y="419" type="line"/>
    </contour>
  </outline>
</glyph>
<glyph name="plussuperior" format="2">
  <advance width="600"/>
  <unicode hex="207A"/>
  <outline>
    <contour>
      <point x="257" y="293" type="line"/>
      <point x="341" y="293" type="line"/>
      <point x="341" y="406" type="line"/>
      <point x="458" y="406" type="line"/>
      <point x="458" y="490" type="line"/>
      <point x="341" y="490" type="line"/>
      <point x="341" y="604" type="line"/>
      <point x="257" y="604" type="line"/>
      <point x="257" y="490" type="line"/>
      <point x="141" y="490" type="line"/>
      <point x="141" y="406" type="line"/>
      <point x="257" y="406" type="line"/>
    </contour>
  </outline>
</glyph>
<glyph name="equalsuperior" format="2">
  <advance width="600"/>
  <unicode hex="207C"/>
  <outline>
    <contour>
      <point x="141" y="476" type="line"/>
      <point x="459" y="476" type="line"/>
      <point x="459" y="560" type="line"/>
      <point x="141" y="560" type="line"/>
    </contour>
    <contour>
      <point x="141" y="334" type="line"/>
      <point x="459" y="334" type="line"/>
      <point x="459" y="418" type="line" smooth="yes"/>
      <point x="141" y="418" type="line"/>
    </contour>
  </outline>
</glyph>
<glyph name="parenleftsuperior" format="2">
  <advance width="600"/>
  <unicode hex="207D"/>
  <outline>
    <contour>
      <point x="293" y="214" type="curve"/>
      <point x="394" y="214" type="line"/>
      <point x="337" y="292"/>
      <point x="313" y="398"/>
      <point x="313" y="498" type="curve" smooth="yes"/>
      <point x="313" y="599"/>
      <point x="337" y="705"/>
      <point x="395" y="785" type="curve"/>
      <point x="293" y="785" type="line"/>
      <point x="228" y="708"/>
      <point x="205" y="601"/>
      <point x="205" y="497" type="curve" smooth="yes"/>
      <point x="205" y="394"/>
      <point x="228" y="289"/>
    </contour>
  </outline>
</glyph>
<glyph name="parenrightsuperior" format="2">
  <advance width="600"/>
  <unicode hex="207E"/>
  <outline>
    <contour>
      <point x="205" y="214" type="curve"/>
      <point x="307" y="214" type="line"/>
      <point x="372" y="291"/>
      <point x="395" y="398"/>
      <point x="395" y="502" type="curve" smooth="yes"/>
      <point x="395" y="605"/>
      <point x="372" y="710"/>
      <point x="307" y="785" type="curve"/>
      <point x="206" y="785" type="line"/>
      <point x="263" y="707"/>
      <point x="287" y="601"/>
      <point x="287" y="501" type="curve" smooth="yes"/>
      <point x="287" y="400"/>
      <point x="263" y="294"/>
    </contour>
  </outline>
</glyph>
<glyph name="uni20A5" format="2">
  <advance width="600"/>
  <unicode hex="20A5"/>
  <anchor x="308" y="0" name="bottom"/>
  <anchor x="338" y="553" name="top"/>
  <anchor x="580" y="553" name="topright"/>
  <outline>
    <contour>
      <point x="51" y="-110" type="line"/>
      <point x="170" y="-110" type="line"/>
      <point x="531" y="666" type="line"/>
      <point x="412" y="666" type="line"/>
    </contour>
    <component base="m"/>
  </outline>
</glyph>
<glyph name="uni20A9" format="2">
  <advance width="600"/>
  <unicode hex="20A9"/>
  <outline>
    <contour>
      <point x="84" y="0" type="line"/>
      <point x="244" y="0" type="line"/>
      <point x="275" y="242" type="line"/>
      <point x="322" y="242" type="line"/>
      <point x="350" y="0" type="line"/>
      <point x="511" y="0" type="line"/>
      <point x="540" y="242" type="line"/>
      <point x="597" y="242" type="line"/>
      <point x="597" y="323" type="line"/>
      <point x="547" y="323" type="line"/>
      <point x="555" y="388" type="line"/>
      <point x="597" y="388" type="line"/>
      <point x="597" y="469" type="line"/>
      <point x="563" y="469" type="line"/>
      <point x="595" y="714" type="line"/>
      <point x="474" y="714" type="line"/>
      <point x="453" y="469" type="line"/>
      <point x="395" y="469" type="line"/>
      <point x="371" y="714" type="line"/>
      <point x="228" y="714" type="line"/>
      <point x="204" y="469" type="line"/>
      <point x="146" y="469" type="line"/>
      <point x="128" y="714" type="line"/>
      <point x="5" y="714" type="line"/>
      <point x="36" y="469" type="line"/>
      <point x="5" y="469" type="line"/>
      <point x="5" y="388" type="line"/>
      <point x="42" y="388" type="line"/>
      <point x="49" y="323" type="line"/>
      <point x="5" y="323" type="line"/>
      <point x="5" y="242" type="line"/>
      <point x="57" y="242" type="line"/>
    </contour>
    <contour>
      <point x="171" y="152" type="line"/>
      <point x="162" y="242" type="line"/>
      <point x="181" y="242" type="line"/>
    </contour>
    <contour>
      <point x="156" y="323" type="line"/>
      <point x="152" y="388" type="line"/>
      <point x="195" y="388" type="line"/>
      <point x="189" y="323" type="line"/>
    </contour>
    <contour>
      <point x="426" y="155" type="line"/>
      <point x="417" y="242" type="line"/>
      <point x="434" y="242" type="line"/>
    </contour>
    <contour>
      <point x="280" y="323" type="line"/>
      <point x="286" y="388" type="line"/>
      <point x="311" y="388" type="line"/>
      <point x="317" y="323" type="line"/>
    </contour>
    <contour>
      <point x="409" y="323" type="line"/>
      <point x="403" y="388" type="line"/>
      <point x="447" y="388" type="line"/>
      <point x="441" y="323" type="line"/>
    </contour>
    <contour>
      <point x="290" y="469" type="line"/>
      <point x="299" y="559" type="line"/>
      <point x="307" y="469" type="line"/>
    </contour>
  </outline>
</glyph>
<glyph name="uni20B2" format="2">
  <advance width="600"/>
  <unicode hex="20B2"/>
  <anchor x="342" y="0" name="bottom"/>
  <anchor x="330" y="714" name="top"/>
  <anchor x="580" y="714" name="topright"/>
  <outline>
    <contour>
      <point x="263" y="-80" type="line"/>
      <point x="365" y="-80" type="line"/>
      <point x="365" y="761" type="line"/>
      <point x="263" y="761" type="line"/>
    </contour>
    <component base="G"/>
  </outline>
</glyph>
<glyph name="accountof" format="2">
  <advance width="600"/>
  <unicode hex="2100"/>
  <anchor x="165.51800000000003" y="394.422" name="bottom"/>
  <anchor x="169.154" y="725.298" name="top"/>
  <outline>
    <contour>
      <point x="470" y="-12" type="curve" smooth="yes"/>
      <point x="515" y="-12"/>
      <point x="548" y="-2"/>
      <point x="575" y="16" type="curve"/>
      <point x="575" y="111" type="line"/>
      <point x="546" y="94"/>
      <point x="514" y="84"/>
      <point x="487" y="84" type="curve" smooth="yes"/>
      <point x="447" y="84"/>
      <point x="424" y="105"/>
      <point x="424" y="155" type="curve" smooth="yes"/>
      <point x="424" y="204"/>
      <point x="447" y="227"/>
      <point x="481" y="227" type="curve" smooth="yes"/>
      <point x="506" y="227"/>
      <point x="526" y="219"/>
      <point x="554" y="208" type="curve"/>
      <point x="586" y="295" type="line"/>
      <point x="555" y="309"/>
      <point x="519" y="318"/>
      <point x="479" y="318" type="curve" smooth="yes"/>
      <point x="382" y="318"/>
      <point x="310" y="270"/>
      <point x="310" y="154" type="curve" smooth="yes"/>
      <point x="310" y="39"/>
      <point x="373" y="-12"/>
    </contour>
    <component base="ordfeminine" xScale="0.909" yScale="0.909" xOffset="-109" yOffset="69"/>
    <component base="fraction" xScale="0.842" xOffset="323"/>
  </outline>
</glyph>
<glyph name="planckconstantovertwopi" format="2">
  <advance width="600"/>
  <unicode hex="210F"/>
  <outline>
    <contour>
      <point x="19" y="580" type="line"/>
      <point x="410" y="580" type="line"/>
      <point x="429" y="695" type="line"/>
      <point x="38" y="695" type="line"/>
    </contour>
    <component base="planckconstant"/>
  </outline>
</glyph>
<glyph name="versicle" format="2">
  <advance width="600"/>
  <unicode hex="2123"/>
  <anchor x="300" y="0" name="bottom"/>
  <anchor x="300" y="714" name="top"/>
  <anchor x="580" y="714" name="topright"/>
  <outline>
    <contour>
      <point x="86" y="-146" type="line"/>
      <point x="155" y="-146" type="line"/>
      <point x="371" y="806" type="line"/>
      <point x="94" y="899" type="line"/>
      <point x="70" y="832" type="line"/>
      <point x="286" y="764" type="line"/>
    </contour>
    <component base="V"/>
  </outline>
</glyph>
<glyph name="notequal" format="2">
  <advance width="600"/>
  <unicode hex="2260"/>
  <outline>
    <contour>
      <point x="266" y="61" type="line"/>
      <point x="460" y="610" type="line"/>
      <point x="333" y="650" type="line"/>
      <point x="140" y="100" type="line"/>
    </contour>
    <component base="equal"/>
  </outline>
</glyph>
<glyph name="n-aryintersection" format="2">
  <advance width="600"/>
  <unicode hex="22C2"/>
  <outline>
    <contour>
      <point x="39" y="0" type="line"/>
      <point x="198" y="0" type="line"/>
      <point x="197" y="402" type="line" smooth="yes"/>
      <point x="197" y="514"/>
      <point x="236" y="556"/>
      <point x="300" y="556" type="curve" smooth="yes"/>
      <point x="365" y="556"/>
      <point x="401" y="516"/>
      <point x="401" y="402" type="curve" smooth="yes"/>
      <point x="402" y="0" type="line"/>
      <point x="561" y="0" type="line"/>
      <point x="560" y="402" type="line" smooth="yes"/>
      <point x="559" y="606"/>
      <point x="473" y="696"/>
      <point x="300" y="696" type="curve" smooth="yes"/>
      <point x="126" y="696"/>
      <point x="38" y="597"/>
      <point x="38" y="402" type="curve" smooth="yes"/>
    </contour>
  </outline>
</glyph>
<glyph name="APLquadequal" format="2">
  <advance width="600"/>
  <unicode hex="2338"/>
  <outline>
    <contour>
      <point x="155" y="213" type="line"/>
      <point x="445" y="213" type="line"/>
      <point x="445" y="310" type="line"/>
      <point x="155" y="310" type="line"/>
    </contour>
    <contour>
      <point x="155" y="404" type="line"/>
      <point x="445" y="404" type="line"/>
      <point x="445" y="501" type="line"/>
      <point x="155" y="501" type="line"/>
    </contour>
    <component base="APLquad"/>
  </outline>
</glyph>
<glyph name="APLquaddiamond" format="2">
  <advance width="600"/>
  <unicode hex="233A"/>
  <outline>
    <contour>
      <point x="300" y="201" type="line"/>
      <point x="456" y="357" type="line"/>
      <point x="300" y="513" type="line"/>
      <point x="144" y="357" type="line"/>
    </contour>
    <contour>
      <point x="300" y="281" type="line"/>
      <point x="224" y="357" type="line"/>
      <point x="300" y="433" type="line"/>
      <point x="376" y="357" type="line"/>
    </contour>
    <component base="APLquad"/>
  </outline>
</glyph>
<glyph name="APLquadslash" format="2">
  <advance width="600"/>
  <unicode hex="2341"/>
  <outline>
    <contour>
      <point x="127" y="-96" type="line"/>
      <point x="568" y="760" type="line"/>
      <point x="474" y="810" type="line"/>
      <point x="33" y="-46" type="line"/>
    </contour>
    <component base="APLquad"/>
  </outline>
</glyph>
<glyph name="APLquadrightarrow" format="2">
  <advance width="600"/>
  <unicode hex="2348"/>
  <outline>
    <contour>
      <point x="277" y="202" type="line"/>
      <point x="453" y="357" type="line"/>
      <point x="277" y="512" type="line"/>
      <point x="297" y="409" type="line"/>
      <point x="78" y="409" type="line"/>
      <point x="78" y="305" type="line"/>
      <point x="297" y="305" type="line"/>
    </contour>
    <component base="APLquad"/>
  </outline>
</glyph>
<glyph name="APLquaddelta" format="2">
  <advance width="600"/>
  <unicode hex="234D"/>
  <outline>
    <contour>
      <point x="129" y="143" type="line"/>
      <point x="471" y="143" type="line"/>
      <point x="471" y="186" type="line"/>
      <point x="319" y="558" type="line"/>
      <point x="281" y="558" type="line"/>
      <point x="129" y="186" type="line"/>
    </contour>
    <contour>
      <point x="222" y="217" type="line"/>
      <point x="300" y="414" type="line"/>
      <point x="378" y="217" type="line"/>
    </contour>
    <component base="APLquad"/>
  </outline>
</glyph>
<glyph name="APLquadupcaret" format="2">
  <advance width="600"/>
  <unicode hex="2353"/>
  <outline>
    <contour>
      <point x="82" y="128" type="line"/>
      <point x="300" y="461" type="line"/>
      <point x="519" y="128" type="line"/>
      <point x="519" y="317" type="line"/>
      <point x="349" y="583" type="line"/>
      <point x="252" y="583" type="line"/>
      <point x="82" y="317" type="line"/>
    </contour>
    <component base="APLquad"/>
  </outline>
</glyph>
<glyph name="APLquaddownarrow" format="2">
  <advance width="600"/>
  <unicode hex="2357"/>
  <outline>
    <contour>
      <point x="301" y="5" type="line"/>
      <point x="455" y="181" type="line"/>
      <point x="353" y="161" type="line"/>
      <point x="353" y="728" type="line"/>
      <point x="249" y="728" type="line"/>
      <point x="249" y="161" type="line"/>
      <point x="146" y="181" type="line"/>
    </contour>
    <component base="APLquad"/>
  </outline>
</glyph>
<glyph name="APLquotequad" format="2">
  <advance width="600"/>
  <unicode hex="235E"/>
  <outline>
    <contour>
      <point x="256" y="400" type="line"/>
      <point x="344" y="400" type="line"/>
      <point x="366" y="682" type="line"/>
      <point x="234" y="682" type="line"/>
    </contour>
    <component base="APLquad"/>
  </outline>
</glyph>
<glyph name="uni2C61" format="2">
  <advance width="600"/>
  <unicode hex="2C61"/>
  <anchor x="300" y="0" name="bottom"/>
  <anchor x="300" y="760" name="top"/>
  <outline>
    <contour>
      <point x="213" y="0" type="line"/>
      <point x="387" y="0" type="line"/>
      <point x="387" y="227" type="line"/>
      <point x="456" y="227" type="line"/>
      <point x="456" y="330" type="line"/>
      <point x="387" y="330" type="line"/>
      <point x="387" y="400" type="line"/>
      <point x="456" y="400" type="line"/>
      <point x="456" y="502" type="line"/>
      <point x="387" y="502" type="line"/>
      <point x="387" y="760" type="line"/>
      <point x="213" y="760" type="line"/>
      <point x="213" y="502" type="line"/>
      <point x="144" y="502" type="line"/>
      <point x="144" y="400" type="line"/>
      <point x="213" y="400" type="line"/>
      <point x="213" y="330" type="line"/>
      <point x="144" y="330" type="line"/>
      <point x="144" y="227" type="line"/>
      <point x="213" y="227" type="line"/>
    </contour>
  </outline>
</glyph>
<glyph name="uni2C68" format="2">
  <advance width="600"/>
  <unicode hex="2C68"/>
  <anchor x="300" y="-189" name="bottom"/>
  <anchor x="300" y="277" name="center"/>
  <anchor x="131" y="760" name="top"/>
  <anchor x="580" y="760" name="topright"/>
  <outline>
    <contour>
      <point x="529" y="-203" type="line"/>
      <point x="694" y="-203" type="line"/>
      <point x="694" y="138" type="line"/>
      <point x="537" y="138" type="line"/>
      <point x="442" y="0" type="line"/>
      <point x="529" y="0" type="line"/>
    </contour>
    <component base="h"/>
  </outline>
</glyph>
<glyph name="uni2C6B" format="2">
  <advance width="600"/>
  <unicode hex="2C6B"/>
  <anchor x="312" y="-190" name="bottom"/>
  <anchor x="312" y="714" name="top"/>
  <anchor x="580" y="714" name="topright"/>
  <outline>
    <contour>
      <point x="385" y="-221" type="line"/>
      <point x="550" y="-221" type="line"/>
      <point x="550" y="150" type="line"/>
      <point x="417" y="150" type="line"/>
      <point x="385" y="30" type="line"/>
    </contour>
    <component base="Z"/>
  </outline>
</glyph>
<glyph name="uni2C6C" format="2">
  <advance width="600"/>
  <unicode hex="2C6C"/>
  <anchor x="300" y="-189" name="bottom"/>
  <anchor x="300" y="553" name="top"/>
  <anchor x="580" y="553" name="topright"/>
  <outline>
    <contour>
      <point x="391" y="-203" type="line"/>
      <point x="545" y="-203" type="line"/>
      <point x="545" y="138" type="line"/>
      <point x="433" y="138" type="line"/>
      <point x="391" y="20" type="line"/>
    </contour>
    <component base="z"/>
  </outline>
</glyph>
<glyph name="tildedotabove" format="2">
  <advance width="600"/>
  <unicode hex="2E1E"/>
  <outline>
    <contour>
      <point x="307" y="489" type="curve" smooth="yes"/>
      <point x="347" y="489"/>
      <point x="384" y="514"/>
      <point x="384" y="572" type="curve" smooth="yes"/>
      <point x="384" y="634"/>
      <point x="347" y="655"/>
      <point x="307" y="655" type="curve" smooth="yes"/>
      <point x="266" y="655"/>
      <point x="231" y="634"/>
      <point x="231" y="572" type="curve" smooth="yes"/>
      <point x="231" y="514"/>
      <point x="266" y="489"/>
    </contour>
    <component base="asciitilde"/>
  </outline>
</glyph>
<glyph name="uni2E44" format="2">
  <advance width="600"/>
  <unicode hex="2E44"/>
  <outline>
    <contour>
      <point x="217" y="474" type="line"/>
      <point x="465" y="661" type="line"/>
      <point x="353" y="772" type="line"/>
      <point x="135" y="560" type="line"/>
    </contour>
    <contour>
      <point x="217" y="-63" type="line"/>
      <point x="465" y="124" type="line"/>
      <point x="353" y="235" type="line"/>
      <point x="135" y="23" type="line"/>
    </contour>
  </outline>
</glyph>
<glyph name="uniA65D" format="2">
  <advance width="1200"/>
  <unicode hex="A65D"/>
  <outline>
    <contour>
      <point x="156" y="0" type="line"/>
      <point x="330" y="0" type="line"/>
      <point x="330" y="217" type="line"/>
      <point x="714" y="217" type="line"/>
      <point x="714" y="347" type="line"/>
      <point x="330" y="347" type="line"/>
      <point x="330" y="553" type="line"/>
      <point x="156" y="553" type="line"/>
    </contour>
    <component base="uniA659" xOffset="511"/>
  </outline>
</glyph>
<glyph name="uniA66A" format="2">
  <advance width="600"/>
  <unicode hex="A66A"/>
  <anchor x="300" y="0" name="bottom"/>
  <anchor x="300" y="357" name="center"/>
  <anchor x="302" y="10" name="ogonek"/>
  <anchor x="300" y="714" name="top"/>
  <anchor x="20" y="714" name="topleft"/>
  <anchor x="580" y="714" name="topright"/>
  <outline>
    <contour>
      <point x="300" y="-10" type="curve" smooth="yes"/>
      <point x="509" y="-10"/>
      <point x="600" y="124"/>
      <point x="600" y="357" type="curve" smooth="yes"/>
      <point x="600" y="592"/>
      <point x="507" y="725"/>
      <point x="300" y="725" type="curve" smooth="yes"/>
      <point x="96" y="725"/>
      <point x="0" y="597"/>
      <point x="0" y="358" type="curve" smooth="yes"/>
      <point x="0" y="121"/>
      <point x="94" y="-10"/>
    </contour>
    <contour>
      <point x="300" y="140" type="curve" smooth="yes"/>
      <point x="210" y="140"/>
      <point x="179" y="203"/>
      <point x="179" y="358" type="curve" smooth="yes"/>
      <point x="179" y="513"/>
      <point x="211" y="574"/>
      <point x="300" y="574" type="curve" smooth="yes"/>
      <point x="392" y="574"/>
      <point x="421" y="507"/>
      <point x="421" y="360" type="curve" smooth="yes"/>
      <point x="421" y="207"/>
      <point x="391" y="140"/>
    </contour>
    <component base="period" xScale="0.551" yScale="0.744" xOffset="194" yOffset="296"/>
    <component base="period" xScale="0.551" yScale="0.744" xOffset="76" yOffset="296"/>
  </outline>
</glyph>
<glyph name="uniA680" format="2">
  <advance width="600"/>
  <unicode hex="A680"/>
  <anchor x="305" y="-216" name="bottom"/>
  <anchor x="345" y="714" name="top"/>
  <outline>
    <contour>
      <point x="165" y="668" type="line"/>
      <point x="313" y="668" type="line"/>
      <point x="313" y="920" type="line"/>
      <point x="165" y="920" type="line"/>
    </contour>
    <component base="afii10021" xOffset="5"/>
  </outline>
</glyph>
<glyph name="uniA681" format="2">
  <advance width="600"/>
  <unicode hex="A681"/>
  <anchor x="300" y="-200" name="bottom"/>
  <anchor x="335" y="553" name="top"/>
  <outline>
    <contour>
      <point x="161" y="487" type="line"/>
      <point x="296" y="487" type="line"/>
      <point x="296" y="739" type="line"/>
      <point x="161" y="739" type="line"/>
    </contour>
    <component base="afii10069"/>
  </outline>
</glyph>
<glyph name="uniA684" format="2">
  <advance width="1200"/>
  <unicode hex="A684"/>
  <anchor x="300" y="0" name="bottom_1"/>
  <anchor x="896" y="0" name="bottom_2"/>
  <anchor x="1180" y="0" name="bottomright"/>
  <anchor x="300" y="714" name="top_1"/>
  <anchor x="900" y="714" name="top_2"/>
  <outline>
    <contour>
      <point x="202" y="301" type="line"/>
      <point x="692" y="301" type="line"/>
      <point x="692" y="442" type="line"/>
      <point x="202" y="442" type="line"/>
    </contour>
    <component base="afii10025"/>
    <component base="afii10028" xOffset="600"/>
  </outline>
</glyph>
<glyph name="uniA69E" format="2">
  <unicode hex="A69E"/>
  <outline>
    <contour>
      <point x="-56" y="118" type="line"/>
      <point x="58" y="118" type="line"/>
      <point x="58" y="272" type="line"/>
      <point x="198" y="283"/>
      <point x="260" y="355"/>
      <point x="260" y="448" type="curve" smooth="yes"/>
      <point x="260" y="542"/>
      <point x="194" y="614"/>
      <point x="58" y="626" type="curve"/>
      <point x="58" y="758" type="line"/>
      <point x="-58" y="758" type="line"/>
      <point x="-58" y="626" type="line"/>
      <point x="-202" y="617"/>
      <point x="-260" y="546"/>
      <point x="-260" y="448" type="curve" smooth="yes"/>
      <point x="-260" y="356"/>
      <point x="-191" y="285"/>
      <point x="-56" y="272" type="curve"/>
    </contour>
    <contour>
      <point x="-58" y="362" type="line"/>
      <point x="-99" y="364"/>
      <point x="-129" y="400"/>
      <point x="-129" y="448" type="curve" smooth="yes"/>
      <point x="-129" y="496"/>
      <point x="-95" y="533"/>
      <point x="-58" y="535" type="curve"/>
    </contour>
    <contour>
      <point x="58" y="362" type="curve"/>
      <point x="58" y="535" type="line"/>
      <point x="97" y="533"/>
      <point x="129" y="496"/>
      <point x="129" y="448" type="curve" smooth="yes"/>
      <point x="129" y="399"/>
      <point x="99" y="364"/>
    </contour>
  </outline>
</glyph>
<glyph name="uniA726" format="2">
  <advance width="600"/>
  <unicode hex="A726"/>
  <anchor x="300" y="0" name="bottom"/>
  <anchor x="300" y="374" name="center"/>
  <anchor x="300" y="714" name="top"/>
  <anchor x="20" y="714" name="topleft"/>
  <anchor x="600" y="714" name="topright"/>
  <outline>
    <contour>
      <point x="381" y="-240" type="curve" smooth="yes"/>
      <point x="485" y="-240"/>
      <point x="560" y="-186"/>
      <point x="560" y="-52" type="curve" smooth="yes"/>
      <point x="560" y="216" type="line"/>
      <point x="383" y="173" type="line"/>
      <point x="383" y="-36" type="line" smooth="yes"/>
      <point x="383" y="-87"/>
      <point x="364" y="-105"/>
      <point x="331" y="-105" type="curve" smooth="yes"/>
      <point x="314" y="-105"/>
      <point x="290" y="-100"/>
      <point x="276" y="-95" type="curve"/>
      <point x="276" y="-224" type="line"/>
      <point x="293" y="-230"/>
      <point x="336" y="-240"/>
    </contour>
    <component base="H"/>
  </outline>
</glyph>
<glyph name="uniA728" format="2">
  <advance width="1200"/>
  <unicode hex="A728"/>
  <anchor x="370" y="0" name="bottom"/>
  <anchor x="369" y="357" name="center"/>
  <anchor x="369" y="714" name="top"/>
  <anchor x="649" y="714" name="topright"/>
  <outline>
    <contour>
      <point x="786" y="-241" type="curve" smooth="yes"/>
      <point x="998" y="-241"/>
      <point x="1093" y="-146"/>
      <point x="1093" y="-12" type="curve" smooth="yes"/>
      <point x="1093" y="104"/>
      <point x="1010" y="183"/>
      <point x="867" y="191" type="curve"/>
      <point x="1054" y="364" type="line"/>
      <point x="1054" y="483" type="line"/>
      <point x="391" y="483" type="line"/>
      <point x="391" y="325" type="line"/>
      <point x="807" y="325" type="line"/>
      <point x="664" y="192" type="line"/>
      <point x="664" y="63" type="line"/>
      <point x="716" y="63" type="line" smooth="yes"/>
      <point x="867" y="63"/>
      <point x="900" y="33"/>
      <point x="900" y="-6" type="curve" smooth="yes"/>
      <point x="900" y="-50"/>
      <point x="871" y="-83"/>
      <point x="772" y="-83" type="curve" smooth="yes"/>
      <point x="715" y="-83"/>
      <point x="634" y="-68"/>
      <point x="568" y="-36" type="curve"/>
      <point x="568" y="-202" type="line"/>
      <point x="630" y="-226"/>
      <point x="704" y="-241"/>
    </contour>
    <component base="T" xOffset="69"/>
  </outline>
</glyph>
<glyph name="uniA72B" format="2">
  <advance width="600"/>
  <unicode hex="A72B"/>
  <outline>
    <contour>
      <point x="344" y="-240" type="curve" smooth="yes"/>
      <point x="430" y="-240"/>
      <point x="509" y="-224"/>
      <point x="570" y="-196" type="curve"/>
      <point x="570" y="-44" type="line"/>
      <point x="506" y="-77"/>
      <point x="425" y="-96"/>
      <point x="359" y="-96" type="curve" smooth="yes"/>
      <point x="244" y="-96"/>
      <point x="210" y="-37"/>
      <point x="210" y="14" type="curve" smooth="yes"/>
      <point x="210" y="70"/>
      <point x="249" y="122"/>
      <point x="417" y="122" type="curve" smooth="yes"/>
      <point x="454" y="122" type="line"/>
      <point x="454" y="248" type="line"/>
      <point x="231" y="383" type="line"/>
      <point x="338" y="431" type="line"/>
      <point x="425" y="426"/>
      <point x="472" y="418"/>
      <point x="528" y="394" type="curve"/>
      <point x="572" y="529" type="line"/>
      <point x="514" y="551"/>
      <point x="434" y="564"/>
      <point x="299" y="564" type="curve"/>
      <point x="60" y="462" type="line"/>
      <point x="60" y="332" type="line"/>
      <point x="226" y="233" type="line"/>
      <point x="90" y="204"/>
      <point x="34" y="114"/>
      <point x="34" y="4" type="curve" smooth="yes"/>
      <point x="34" y="-135"/>
      <point x="125" y="-240"/>
    </contour>
  </outline>
</glyph>
<glyph name="uniA730" format="2">
  <advance width="600"/>
  <unicode hex="A730"/>
  <outline>
    <contour>
      <point x="126" y="0" type="line"/>
      <point x="264" y="0" type="line"/>
      <point x="264" y="230" type="line"/>
      <point x="460" y="230" type="line"/>
      <point x="460" y="339" type="line"/>
      <point x="264" y="339" type="line"/>
      <point x="264" y="444" type="line"/>
      <point x="474" y="444" type="line"/>
      <point x="474" y="553" type="line"/>
      <point x="126" y="553" type="line"/>
    </contour>
  </outline>
</glyph>
<glyph name="uniA731" format="2">
  <advance width="600"/>
  <unicode hex="A731"/>
  <anchor x="314" y="0" name="bottom"/>
  <anchor x="314" y="553" name="top"/>
  <outline>
    <contour>
      <point x="266" y="-10" type="curve" smooth="yes"/>
      <point x="436" y="-10"/>
      <point x="495" y="76"/>
      <point x="495" y="170" type="curve" smooth="yes"/>
      <point x="495" y="266"/>
      <point x="433" y="298"/>
      <point x="367" y="330" type="curve" smooth="yes"/>
      <point x="298" y="363"/>
      <point x="258" y="376"/>
      <point x="258" y="407" type="curve" smooth="yes"/>
      <point x="258" y="427"/>
      <point x="274" y="443"/>
      <point x="315" y="443" type="curve" smooth="yes"/>
      <point x="353" y="443"/>
      <point x="402" y="429"/>
      <point x="449" y="407" type="curve"/>
      <point x="495" y="523" type="line"/>
      <point x="449" y="543"/>
      <point x="393" y="563"/>
      <point x="317" y="563" type="curve" smooth="yes"/>
      <point x="193" y="563"/>
      <point x="109" y="509"/>
      <point x="109" y="396" type="curve" smooth="yes"/>
      <point x="109" y="305"/>
      <point x="164" y="264"/>
      <point x="244" y="227" type="curve" smooth="yes"/>
      <point x="301" y="201"/>
      <point x="345" y="188"/>
      <point x="345" y="154" type="curve" smooth="yes"/>
      <point x="345" y="130"/>
      <point x="325" y="113"/>
      <point x="277" y="113" type="curve" smooth="yes"/>
      <point x="231" y="113"/>
      <point x="165" y="129"/>
      <point x="105" y="159" type="curve"/>
      <point x="105" y="25" type="line"/>
      <point x="158" y="-1"/>
      <point x="211" y="-10"/>
    </contour>
  </outline>
</glyph>
<glyph name="uniA742" format="2">
  <advance width="600"/>
  <unicode hex="A742"/>
  <anchor x="304" y="0" name="bottom"/>
  <anchor x="300" y="714" name="top"/>
  <anchor x="580" y="714" name="topright"/>
  <outline>
    <contour>
      <point x="304" y="35" type="line"/>
      <point x="574" y="243" type="line"/>
      <point x="493" y="343" type="line"/>
      <point x="225" y="136" type="line"/>
    </contour>
    <component base="K"/>
  </outline>
</glyph>
<glyph name="uniA743" format="2">
  <advance width="600"/>
  <unicode hex="A743"/>
  <anchor x="316" y="0" name="bottom"/>
  <anchor x="330" y="760" name="top"/>
  <anchor x="580" y="760" name="topright"/>
  <outline>
    <contour>
      <point x="333" y="8" type="line"/>
      <point x="580" y="230" type="line"/>
      <point x="498" y="319" type="line"/>
      <point x="251" y="97" type="line"/>
    </contour>
    <component base="k"/>
  </outline>
</glyph>
<glyph name="uniA746" format="2">
  <advance width="600"/>
  <unicode hex="A746"/>
  <outline>
    <contour>
      <point x="228" y="0" type="line"/>
      <point x="570" y="0" type="line"/>
      <point x="570" y="156" type="line"/>
      <point x="405" y="156" type="line"/>
      <point x="405" y="494" type="line"/>
      <point x="228" y="431" type="line"/>
    </contour>
    <contour>
      <point x="50" y="335" type="line"/>
      <point x="405" y="462" type="line"/>
      <point x="405" y="539" type="line"/>
      <point x="50" y="412" type="line"/>
    </contour>
    <contour>
      <point x="50" y="368" type="line"/>
      <point x="227" y="431" type="line"/>
      <point x="227" y="714" type="line"/>
      <point x="50" y="714" type="line"/>
    </contour>
  </outline>
</glyph>
<glyph name="uniA749" format="2">
  <advance width="600"/>
  <unicode hex="A749"/>
  <anchor x="318" y="0" name="bottom"/>
  <anchor x="318" y="390" name="center"/>
  <anchor x="300" y="760" name="top"/>
  <anchor x="508" y="760" name="topright"/>
  <outline>
    <contour>
      <point x="94" y="444" type="line"/>
      <point x="525" y="444" type="line"/>
      <point x="525" y="564" type="line"/>
      <point x="94" y="564" type="line"/>
    </contour>
    <component base="l"/>
  </outline>
</glyph>
<glyph name="uniA74B" format="2">
  <advance width="600"/>
  <unicode hex="A74B"/>
  <anchor x="300" y="0" name="bottom"/>
  <anchor x="300" y="277" name="center"/>
  <anchor x="301" y="10" name="ogonek"/>
  <anchor x="300" y="553" name="top"/>
  <anchor x="580" y="553" name="topright"/>
  <outline>
    <contour>
      <point x="0" y="215" type="line"/>
      <point x="600" y="215" type="line"/>
      <point x="600" y="339" type="line"/>
      <point x="0" y="339" type="line"/>
    </contour>
    <component base="o"/>
  </outline>
</glyph>
<glyph name="uniA750" format="2">
  <advance width="600"/>
  <unicode hex="A750"/>
  <anchor x="300" y="0" name="bottom"/>
  <anchor x="300" y="714" name="top"/>
  <anchor x="600" y="714" name="topright"/>
  <outline>
    <contour>
      <point x="0" y="61" type="line"/>
      <point x="352" y="61" type="line"/>
      <point x="352" y="186" type="line"/>
      <point x="0" y="186" type="line"/>
    </contour>
    <component base="P"/>
  </outline>
</glyph>
<glyph name="uniA757" format="2">
  <advance width="600"/>
  <unicode hex="A757"/>
  <anchor x="270" y="-240" name="bottom"/>
  <anchor x="270" y="553" name="top"/>
  <anchor x="580" y="553" name="topright"/>
  <outline>
    <contour>
      <point x="208" y="-174" type="line"/>
      <point x="600" y="-174" type="line"/>
      <point x="600" y="-53" type="line"/>
      <point x="208" y="-53" type="line"/>
    </contour>
    <component base="q"/>
  </outline>
</glyph>
<glyph name="uniA758" format="2">
  <advance width="600"/>
  <unicode hex="A758"/>
  <anchor x="300" y="-220" name="bottom"/>
  <anchor x="300" y="357" name="center"/>
  <anchor x="295" y="10" name="ogonek"/>
  <anchor x="300" y="714" name="top"/>
  <anchor x="20" y="714" name="topleft"/>
  <anchor x="600" y="714" name="topright"/>
  <outline>
    <contour>
      <point x="252" y="-240" type="line"/>
      <point x="667" y="45" type="line" smooth="yes"/>
      <point x="743" y="97"/>
      <point x="787" y="134"/>
      <point x="787" y="238" type="curve" smooth="yes"/>
      <point x="787" y="325"/>
      <point x="734" y="385"/>
      <point x="640" y="385" type="curve"/>
      <point x="640" y="307" type="line"/>
      <point x="690" y="307"/>
      <point x="707" y="270"/>
      <point x="707" y="233" type="curve" smooth="yes"/>
      <point x="707" y="189"/>
      <point x="688" y="156"/>
      <point x="627" y="114" type="curve" smooth="yes"/>
      <point x="210" y="-174" type="line"/>
    </contour>
    <component base="Q"/>
  </outline>
</glyph>
<glyph name="uniA75C" format="2">
  <advance width="600"/>
  <unicode hex="A75C"/>
  <outline>
    <contour>
      <point x="10" y="138" type="line"/>
      <point x="592" y="138" type="line"/>
      <point x="592" y="273" type="line"/>
      <point x="234" y="273" type="line"/>
      <point x="234" y="279" type="line"/>
      <point x="284" y="331" type="line" smooth="yes"/>
      <point x="370" y="421"/>
      <point x="412" y="466"/>
      <point x="412" y="552" type="curve" smooth="yes"/>
      <point x="412" y="659"/>
      <point x="347" y="725"/>
      <point x="222" y="725" type="curve" smooth="yes"/>
      <point x="108" y="725"/>
      <point x="54" y="679"/>
      <point x="3" y="637" type="curve"/>
      <point x="100" y="523" type="line"/>
      <point x="133" y="557"/>
      <point x="165" y="577"/>
      <point x="197" y="577" type="curve" smooth="yes"/>
      <point x="226" y="577"/>
      <point x="242" y="561"/>
      <point x="242" y="532" type="curve" smooth="yes"/>
      <point x="242" y="496"/>
      <point x="216" y="462"/>
      <point x="136" y="374" type="curve" smooth="yes"/>
      <point x="10" y="234" type="line"/>
    </contour>
    <contour>
      <point x="385" y="0" type="line"/>
      <point x="549" y="0" type="line"/>
      <point x="549" y="417" type="line"/>
      <point x="385" y="417" type="line"/>
    </contour>
  </outline>
</glyph>
<glyph name="uniA75E" format="2">
  <advance width="600"/>
  <unicode hex="A75E"/>
  <anchor x="300" y="0" name="bottom"/>
  <anchor x="300" y="714" name="top"/>
  <anchor x="580" y="714" name="topright"/>
  <outline>
    <contour>
      <point x="95" y="-75" type="line"/>
      <point x="216" y="-75" type="line"/>
      <point x="399" y="760" type="line"/>
      <point x="278" y="760" type="line"/>
    </contour>
    <component base="V"/>
  </outline>
</glyph>
<glyph name="uniA764" format="2">
  <advance width="600"/>
  <unicode hex="A764"/>
  <outline>
    <contour>
      <point x="60" y="0" type="line"/>
      <point x="225" y="0" type="line"/>
      <point x="225" y="85" type="line"/>
      <point x="309" y="85" type="line" smooth="yes"/>
      <point x="527" y="85"/>
      <point x="570" y="197"/>
      <point x="570" y="300" type="curve" smooth="yes"/>
      <point x="570" y="428"/>
      <point x="498" y="505"/>
      <point x="320" y="505" type="curve" smooth="yes"/>
      <point x="225" y="505" type="line"/>
      <point x="225" y="551" type="line"/>
      <point x="356" y="551" type="line"/>
      <point x="356" y="674" type="line"/>
      <point x="225" y="674" type="line"/>
      <point x="225" y="714" type="line"/>
      <point x="60" y="714" type="line"/>
      <point x="60" y="674" type="line"/>
      <point x="1" y="674" type="line"/>
      <point x="1" y="551" type="line"/>
      <point x="60" y="551" type="line"/>
    </contour>
    <contour>
      <point x="225" y="225" type="line"/>
      <point x="225" y="365" type="line"/>
      <point x="304" y="365" type="line" smooth="yes"/>
      <point x="369" y="365"/>
      <point x="395" y="345"/>
      <point x="395" y="298" type="curve" smooth="yes"/>
      <point x="395" y="252"/>
      <point x="372" y="225"/>
      <point x="300" y="225" type="curve" smooth="yes"/>
    </contour>
  </outline>
</glyph>
<glyph name="uniA768" format="2">
  <advance width="600"/>
  <unicode hex="A768"/>
  <outline>
    <contour>
      <point x="10" y="-240" type="line"/>
      <point x="322" y="-240" type="line"/>
      <point x="322" y="-150" type="line"/>
      <point x="243" y="-116" type="line"/>
      <point x="243" y="-38" type="line"/>
      <point x="595" y="714" type="line"/>
      <point x="419" y="714" type="line"/>
      <point x="269" y="362" type="line" smooth="yes"/>
      <point x="255" y="329"/>
      <point x="251" y="312"/>
      <point x="237" y="239" type="curve"/>
      <point x="229" y="241" type="line"/>
      <point x="241" y="314"/>
      <point x="243" y="331"/>
      <point x="243" y="362" type="curve" smooth="yes"/>
      <point x="243" y="591" type="line"/>
      <point x="308" y="624" type="line"/>
      <point x="308" y="714" type="line"/>
      <point x="10" y="714" type="line"/>
      <point x="10" y="624" type="line"/>
      <point x="89" y="591" type="line"/>
      <point x="89" y="-116" type="line"/>
      <point x="10" y="-150" type="line"/>
    </contour>
  </outline>
</glyph>
<glyph name="uniA772" format="2">
  <advance width="600"/>
  <unicode hex="A772"/>
  <anchor x="348" y="0" name="bottom"/>
  <anchor x="348" y="390" name="center"/>
  <anchor x="330" y="760" name="top"/>
  <anchor x="538" y="760" name="topright"/>
  <outline>
    <contour>
      <point x="10" y="-157" type="line"/>
      <point x="127" y="-157" type="line"/>
      <point x="228" y="298" type="line"/>
      <point x="112" y="298" type="line"/>
    </contour>
    <contour>
      <point x="10" y="0" type="line"/>
      <point x="343" y="0" type="line"/>
      <point x="343" y="144" type="line"/>
      <point x="10" y="144" type="line"/>
    </contour>
    <component base="l" xOffset="30"/>
  </outline>
</glyph>
<glyph name="uniA779" format="2">
  <advance width="600"/>
  <unicode hex="A779"/>
  <anchor x="300" y="0" name="bottom"/>
  <anchor x="300" y="357" name="center"/>
  <anchor x="295" y="10" name="ogonek"/>
  <anchor x="300" y="714" name="top"/>
  <anchor x="20" y="714" name="topleft"/>
  <anchor x="600" y="714" name="topright"/>
  <outline>
    <contour>
      <point x="0" y="574" type="line"/>
      <point x="304" y="574" type="line"/>
      <point x="304" y="725" type="line"/>
      <point x="0" y="725" type="line"/>
    </contour>
    <component base="O"/>
  </outline>
</glyph>
<glyph name="uniA78D" format="2">
  <advance width="600"/>
  <unicode hex="A78D"/>
  <outline>
    <contour>
      <point x="383" y="0" type="line"/>
      <point x="560" y="0" type="line"/>
      <point x="560" y="714" type="line"/>
      <point x="383" y="714" type="line"/>
      <point x="383" y="445" type="line"/>
      <point x="217" y="445" type="line"/>
      <point x="217" y="714" type="line"/>
      <point x="40" y="714" type="line"/>
      <point x="40" y="295" type="line"/>
      <point x="383" y="295" type="line"/>
    </contour>
  </outline>
</glyph>
<glyph name="uniA791" format="2">
  <advance width="600"/>
  <unicode hex="A791"/>
  <anchor x="307" y="0" name="bottom"/>
  <anchor x="314" y="553" name="top"/>
  <anchor x="580" y="553" name="topright"/>
  <outline>
    <contour>
      <point x="436" y="-203" type="line"/>
      <point x="600" y="-203" type="line"/>
      <point x="600" y="138" type="line"/>
      <point x="427" y="138" type="line"/>
      <point x="427" y="0" type="line"/>
      <point x="436" y="0" type="line"/>
    </contour>
    <component base="n"/>
  </outline>
</glyph>
<glyph name="uniA793" format="2">
  <advance width="600"/>
  <unicode hex="A793"/>
  <anchor x="366" y="0" name="bottom"/>
  <anchor x="349" y="553" name="top"/>
  <anchor x="616" y="553" name="topright"/>
  <outline>
    <contour>
      <point x="34" y="220" type="line"/>
      <point x="422" y="220" type="line"/>
      <point x="422" y="339" type="line"/>
      <point x="34" y="339" type="line"/>
    </contour>
    <component base="c" xOffset="36"/>
  </outline>
</glyph>
<glyph name="uniA794" format="2">
  <advance width="600"/>
  <unicode hex="A794"/>
  <anchor x="330" y="0" name="bottom"/>
  <anchor x="313" y="553" name="top"/>
  <anchor x="580" y="553" name="topright"/>
  <outline>
    <contour>
      <point x="299" y="-273" type="curve" smooth="yes"/>
      <point x="452" y="-273"/>
      <point x="509" y="-168"/>
      <point x="509" y="-58" type="curve" smooth="yes"/>
      <point x="509" y="164" type="line"/>
      <point x="320" y="52" type="line"/>
      <point x="320" y="-18" type="line" smooth="yes"/>
      <point x="320" y="-104"/>
      <point x="287" y="-122"/>
      <point x="251" y="-122" type="curve" smooth="yes"/>
      <point x="229" y="-122"/>
      <point x="215" y="-120"/>
      <point x="189" y="-113" type="curve"/>
      <point x="189" y="-261" type="line"/>
      <point x="216" y="-269"/>
      <point x="264" y="-273"/>
    </contour>
    <component base="c"/>
  </outline>
</glyph>
<glyph name="uniA795" format="2">
  <advance width="600"/>
  <unicode hex="A795"/>
  <anchor x="300" y="0" name="bottom"/>
  <anchor x="300" y="277" name="center"/>
  <anchor x="131" y="760" name="top"/>
  <anchor x="580" y="760" name="topright"/>
  <outline>
    <contour>
      <point x="379" y="-251" type="curve"/>
      <point x="496" y="-251"/>
      <point x="560" y="-197"/>
      <point x="560" y="-63" type="curve" smooth="yes"/>
      <point x="560" y="133" type="line"/>
      <point x="483" y="133" type="line"/>
      <point x="385" y="10" type="line"/>
      <point x="385" y="-60" type="line" smooth="yes"/>
      <point x="385" y="-109"/>
      <point x="367" y="-122"/>
      <point x="327" y="-122" type="curve" smooth="yes"/>
      <point x="310" y="-122"/>
      <point x="291" y="-119"/>
      <point x="273" y="-113" type="curve"/>
      <point x="273" y="-237" type="line"/>
      <point x="305" y="-247"/>
      <point x="339" y="-251"/>
    </contour>
    <component base="h"/>
  </outline>
</glyph>
<glyph name="uniA799" format="2">
  <advance width="600"/>
  <unicode hex="A799"/>
  <anchor x="300" y="0" name="bottom"/>
  <anchor x="405" y="763" name="top"/>
  <anchor x="600" y="765" name="topright"/>
  <outline>
    <contour>
      <point x="97" y="217" type="line"/>
      <point x="475" y="217" type="line"/>
      <point x="475" y="336" type="line"/>
      <point x="97" y="336" type="line"/>
    </contour>
    <component base="f"/>
  </outline>
</glyph>
<glyph name="uniA7A0" format="2">
  <advance width="600"/>
  <unicode hex="A7A0"/>
  <anchor x="342" y="0" name="bottom"/>
  <anchor x="330" y="714" name="top"/>
  <anchor x="580" y="714" name="topright"/>
  <outline>
    <contour>
      <point x="0" y="375" type="line"/>
      <point x="600" y="450" type="line"/>
      <point x="600" y="558" type="line"/>
      <point x="0" y="483" type="line"/>
    </contour>
    <component base="G"/>
  </outline>
</glyph>
<glyph name="uniA7A1" format="2">
  <advance width="600"/>
  <unicode hex="A7A1"/>
  <anchor x="300" y="-245" name="bottom"/>
  <anchor x="300" y="553" name="top"/>
  <anchor x="580" y="553" name="topright"/>
  <outline>
    <contour>
      <point x="0" y="180" type="line"/>
      <point x="600" y="267" type="line"/>
      <point x="600" y="374" type="line"/>
      <point x="0" y="288" type="line"/>
    </contour>
    <component base="g"/>
  </outline>
</glyph>
<glyph name="uniA7A3" format="2">
  <advance width="600"/>
  <unicode hex="A7A3"/>
  <anchor x="316" y="0" name="bottom"/>
  <anchor x="330" y="760" name="top"/>
  <anchor x="580" y="760" name="topright"/>
  <outline>
    <contour>
      <point x="0" y="167" type="line"/>
      <point x="600" y="254" type="line"/>
      <point x="600" y="361" type="line"/>
      <point x="0" y="275" type="line"/>
    </contour>
    <component base="k"/>
  </outline>
</glyph>
<glyph name="uniA7A7" format="2">
  <advance width="600"/>
  <unicode hex="A7A7"/>
  <anchor x="270" y="0" name="bottom"/>
  <anchor x="314" y="553" name="top"/>
  <anchor x="580" y="553" name="topright"/>
  <outline>
    <contour>
      <point x="0" y="171" type="line"/>
      <point x="600" y="258" type="line"/>
      <point x="600" y="365" type="line"/>
      <point x="0" y="279" type="line"/>
    </contour>
    <component base="r"/>
  </outline>
</glyph>
<glyph name="uniA7A8" format="2">
  <advance width="600"/>
  <unicode hex="A7A8"/>
  <anchor x="300" y="0" name="bottom"/>
  <anchor x="316" y="714" name="top"/>
  <anchor x="580" y="714" name="topright"/>
  <outline>
    <contour>
      <point x="0" y="258" type="line"/>
      <point x="600" y="333" type="line"/>
      <point x="600" y="441" type="line"/>
      <point x="0" y="366" type="line"/>
    </contour>
    <component base="S"/>
  </outline>
</glyph>
<glyph name="uniA7AE" format="2">
  <advance width="600"/>
  <unicode hex="A7AE"/>
  <outline>
    <contour>
      <point x="56" y="0" type="line"/>
      <point x="544" y="0" type="line"/>
      <point x="544" y="85" type="line"/>
      <point x="375" y="112" type="line"/>
      <point x="375" y="442" type="line"/>
      <point x="544" y="468" type="line"/>
      <point x="544" y="553" type="line"/>
      <point x="56" y="553" type="line"/>
      <point x="56" y="468" type="line"/>
      <point x="225" y="442" type="line"/>
      <point x="225" y="112" type="line"/>
      <point x="56" y="85" type="line"/>
    </contour>
  </outline>
</glyph>
<glyph name="uniA7AF" format="2">
  <advance width="600"/>
  <unicode hex="A7AF"/>
  <anchor x="300" y="0" name="bottom"/>
  <anchor x="300" y="296" name="center"/>
  <anchor x="288" y="10" name="ogonek"/>
  <anchor x="300" y="591" name="top"/>
  <anchor x="300" y="621" name="topleft"/>
  <anchor x="300" y="591" name="topright"/>
  <outline>
    <contour>
      <point x="453" y="100" type="line"/>
      <point x="298" y="66" type="line"/>
      <point x="409" y="-142" type="line"/>
      <point x="594" y="-142" type="line"/>
    </contour>
    <component base="o.sc"/>
  </outline>
</glyph>
<glyph name="uniA7B8" format="2">
  <advance width="600"/>
  <unicode hex="A7B8"/>
  <anchor x="300" y="0" name="bottom"/>
  <anchor x="540" y="10" name="ogonek"/>
  <anchor x="300" y="714" name="top"/>
  <anchor x="580" y="714" name="topright"/>
  <outline>
    <contour>
      <point x="83" y="-59" type="line"/>
      <point x="624" y="691" type="line"/>
      <point x="537" y="756" type="line"/>
      <point x="-7" y="8" type="line"/>
    </contour>
    <component base="U"/>
  </outline>
</glyph>
<glyph name="uniA7B9" format="2">
  <advance width="600"/>
  <unicode hex="A7B9"/>
  <anchor x="300" y="0" name="bottom"/>
  <anchor x="540" y="10" name="ogonek"/>
  <anchor x="300" y="553" name="top"/>
  <anchor x="580" y="553" name="topright"/>
  <outline>
    <contour>
      <point x="59" y="-56" type="line"/>
      <point x="621" y="499" type="line"/>
      <point x="555" y="571" type="line"/>
      <point x="-8" y="14" type="line"/>
    </contour>
    <component base="u"/>
  </outline>
</glyph>
<glyph name="uniA7F7" format="2">
  <advance width="600"/>
  <unicode hex="A7F7"/>
  <outline>
    <contour>
      <point x="20" y="57" type="line"/>
      <point x="145" y="57" type="line"/>
      <point x="161" y="203" type="line"/>
      <point x="439" y="203" type="line"/>
      <point x="455" y="57" type="line"/>
      <point x="580" y="57" type="line"/>
      <point x="580" y="517" type="line"/>
      <point x="455" y="517" type="line"/>
      <point x="439" y="372" type="line"/>
      <point x="161" y="372" type="line"/>
      <point x="145" y="517" type="line"/>
      <point x="20" y="517" type="line"/>
    </contour>
  </outline>
</glyph>
<glyph name="uniA7FB" format="2">
  <advance width="600"/>
  <unicode hex="A7FB"/>
  <outline>
    <contour>
      <point x="369" y="0" type="line"/>
      <point x="540" y="0" type="line"/>
      <point x="540" y="714" type="line"/>
      <point x="60" y="714" type="line"/>
      <point x="60" y="564" type="line"/>
      <point x="369" y="564" type="line"/>
      <point x="369" y="415" type="line"/>
      <point x="72" y="415" type="line"/>
      <point x="72" y="265" type="line"/>
      <point x="369" y="265" type="line"/>
    </contour>
  </outline>
</glyph>
<glyph name="uniAB3C" format="2">
  <advance width="600"/>
  <unicode hex="AB3C"/>
  <anchor x="307" y="0" name="bottom"/>
  <anchor x="314" y="553" name="top"/>
  <anchor x="580" y="553" name="topright"/>
  <outline>
    <contour>
      <point x="528" y="-240" type="curve"/>
      <point x="600" y="-182" type="line"/>
      <point x="534" y="-66"/>
      <point x="431" y="20"/>
      <point x="330" y="20" type="curve" smooth="yes"/>
      <point x="260" y="20"/>
      <point x="195" y="-16"/>
      <point x="195" y="-106" type="curve" smooth="yes"/>
      <point x="195" y="-195"/>
      <point x="271" y="-240"/>
      <point x="371" y="-240" type="curve" smooth="yes"/>
      <point x="492" y="-240"/>
      <point x="560" y="-150"/>
      <point x="560" y="-34" type="curve" smooth="yes"/>
      <point x="560" y="130" type="line"/>
      <point x="385" y="130" type="line"/>
      <point x="385" y="-58" type="line" smooth="yes"/>
      <point x="385" y="-121"/>
      <point x="359" y="-132"/>
      <point x="342" y="-132" type="curve" smooth="yes"/>
      <point x="328" y="-132"/>
      <point x="310" y="-127"/>
      <point x="310" y="-105" type="curve" smooth="yes"/>
      <point x="310" y="-85"/>
      <point x="325" y="-72"/>
      <point x="349" y="-72" type="curve" smooth="yes"/>
      <point x="406" y="-72"/>
      <point x="487" y="-155"/>
    </contour>
    <component base="n"/>
  </outline>
</glyph>
<glyph name="uniAB41" format="2">
  <advance width="600"/>
  <unicode hex="AB41"/>
  <anchor x="299" y="553" name="bottom"/>
  <anchor x="299" y="0" name="top"/>
  <outline>
    <contour>
      <point x="332" y="-43" type="line"/>
      <point x="549" y="564" type="line"/>
      <point x="490" y="584" type="line"/>
      <point x="273" y="-23" type="line"/>
    </contour>
    <component base="oe" xScale="-1" yScale="-1" xOffset="599" yOffset="553"/>
  </outline>
</glyph>
<glyph name="uniAB42" format="2">
  <advance width="600"/>
  <unicode hex="AB42"/>
  <anchor x="299" y="553" name="bottom"/>
  <anchor x="299" y="0" name="top"/>
  <outline>
    <contour>
      <point x="301" y="219" type="line"/>
      <point x="536" y="219" type="line"/>
      <point x="536" y="322" type="line"/>
      <point x="301" y="322" type="line"/>
    </contour>
    <component base="oe" xScale="-1" yScale="-1" xOffset="599" yOffset="553"/>
  </outline>
</glyph>
<glyph name="uniAB44" format="2">
  <advance width="600"/>
  <unicode hex="AB44"/>
  <outline>
    <contour>
      <point x="351" y="-47" type="line"/>
      <point x="547" y="566" type="line"/>
      <point x="487" y="586" type="line"/>
      <point x="291" y="-27" type="line"/>
    </contour>
    <component base="uniAB43"/>
  </outline>
</glyph>
<glyph name="uniAB60" format="2">
  <advance width="600"/>
  <unicode hex="AB60"/>
  <outline>
    <contour>
      <point x="20" y="0" type="line"/>
      <point x="175" y="0" type="line"/>
      <point x="175" y="553" type="line"/>
      <point x="20" y="553" type="line"/>
    </contour>
    <contour>
      <point x="209" y="0" type="line"/>
      <point x="385" y="0" type="line" smooth="yes"/>
      <point x="544" y="0"/>
      <point x="595" y="73"/>
      <point x="595" y="184" type="curve" smooth="yes"/>
      <point x="595" y="292"/>
      <point x="551" y="354"/>
      <point x="407" y="354" type="curve" smooth="yes"/>
      <point x="364" y="354" type="line"/>
      <point x="364" y="553" type="line"/>
      <point x="209" y="553" type="line"/>
    </contour>
    <contour>
      <point x="364" y="125" type="line"/>
      <point x="364" y="229" type="line"/>
      <point x="374" y="229" type="line" smooth="yes"/>
      <point x="430" y="229"/>
      <point x="444" y="209"/>
      <point x="444" y="175" type="curve" smooth="yes"/>
      <point x="444" y="143"/>
      <point x="423" y="125"/>
      <point x="376" y="125" type="curve" smooth="yes"/>
    </contour>
  </outline>
</glyph>
<glyph name="f_f_i" format="2">
  <advance width="1200"/>
  <unicode hex="FB03"/>
  <anchor x="986" y="0" name="bottom _3"/>
  <anchor x="200" y="0" name="bottom_1"/>
  <anchor x="597" y="0" name="bottom_2"/>
  <anchor x="400" y="0" name="caret_1"/>
  <anchor x="800" y="0" name="caret_2"/>
  <anchor x="200" y="777" name="top_1"/>
  <anchor x="596" y="777" name="top_2"/>
  <anchor x="986" y="777" name="top_3"/>
  <outline>
    <contour>
      <point x="117" y="0" type="line"/>
      <point x="292" y="0" type="line"/>
      <point x="292" y="413" type="line"/>
      <point x="512" y="413" type="line"/>
      <point x="512" y="0" type="line"/>
      <point x="687" y="0" type="line"/>
      <point x="687" y="413" type="line"/>
      <point x="907" y="413" type="line"/>
      <point x="907" y="0" type="line"/>
      <point x="1082" y="0" type="line"/>
      <point x="1082" y="553" type="line"/>
      <point x="687" y="553" type="line"/>
      <point x="687" y="566" type="line" smooth="yes"/>
      <point x="687" y="604"/>
      <point x="709" y="622"/>
      <point x="762" y="622" type="curve" smooth="yes"/>
      <point x="782" y="622"/>
      <point x="813" y="618"/>
      <point x="848" y="606" type="curve"/>
      <point x="888" y="741" type="line"/>
      <point x="828" y="760"/>
      <point x="790" y="765"/>
      <point x="746" y="765" type="curve" smooth="yes"/>
      <point x="588" y="765"/>
      <point x="512" y="694"/>
      <point x="512" y="581" type="curve" smooth="yes"/>
      <point x="512" y="553" type="line"/>
      <point x="292" y="553" type="line"/>
      <point x="292" y="565" type="line" smooth="yes"/>
      <point x="292" y="604"/>
      <point x="314" y="622"/>
      <point x="374" y="622" type="curve" smooth="yes"/>
      <point x="394" y="622"/>
      <point x="431" y="620"/>
      <point x="470" y="606" type="curve"/>
      <point x="510" y="741" type="line"/>
      <point x="450" y="760"/>
      <point x="402" y="765"/>
      <point x="358" y="765" type="curve" smooth="yes"/>
      <point x="193" y="765"/>
      <point x="117" y="694"/>
      <point x="117" y="581" type="curve" smooth="yes"/>
      <point x="117" y="552" type="line"/>
      <point x="34" y="539" type="line"/>
      <point x="34" y="413" type="line"/>
      <point x="117" y="413" type="line"/>
    </contour>
    <contour>
      <point x="994" y="601" type="curve" smooth="yes"/>
      <point x="1066" y="601"/>
      <point x="1097" y="635"/>
      <point x="1097" y="690" type="curve" smooth="yes"/>
      <point x="1097" y="746"/>
      <point x="1065" y="777"/>
      <point x="994" y="777" type="curve" smooth="yes"/>
      <point x="923" y="777"/>
      <point x="889" y="746"/>
      <point x="889" y="690" type="curve" smooth="yes"/>
      <point x="889" y="631"/>
      <point x="926" y="601"/>
    </contour>
  </outline>
</glyph>
<glyph name="f_f_l" format="2">
  <advance width="1200"/>
  <unicode hex="FB04"/>
  <anchor x="996" y="0" name="bottom _3"/>
  <anchor x="210" y="0" name="bottom_1"/>
  <anchor x="607" y="0" name="bottom_2"/>
  <anchor x="420" y="0" name="caret_1"/>
  <anchor x="807" y="0" name="caret_2"/>
  <anchor x="210" y="777" name="top_1"/>
  <anchor x="606" y="777" name="top_2"/>
  <anchor x="996" y="777" name="top_3"/>
  <outline>
    <contour>
      <point x="129" y="0" type="line"/>
      <point x="304" y="0" type="line"/>
      <point x="304" y="413" type="line"/>
      <point x="524" y="413" type="line"/>
      <point x="524" y="0" type="line"/>
      <point x="699" y="0" type="line"/>
      <point x="699" y="413" type="line"/>
      <point x="858" y="413" type="line"/>
      <point x="858" y="553" type="line"/>
      <point x="699" y="553" type="line"/>
      <point x="699" y="566" type="line" smooth="yes"/>
      <point x="699" y="604"/>
      <point x="721" y="622"/>
      <point x="774" y="622" type="curve" smooth="yes"/>
      <point x="794" y="622"/>
      <point x="825" y="618"/>
      <point x="860" y="606" type="curve"/>
      <point x="900" y="741" type="line"/>
      <point x="840" y="760"/>
      <point x="802" y="765"/>
      <point x="758" y="765" type="curve" smooth="yes"/>
      <point x="600" y="765"/>
      <point x="524" y="694"/>
      <point x="524" y="581" type="curve" smooth="yes"/>
      <point x="524" y="553" type="line"/>
      <point x="304" y="553" type="line"/>
      <point x="304" y="570" type="line" smooth="yes"/>
      <point x="304" y="604"/>
      <point x="326" y="622"/>
      <point x="386" y="622" type="curve" smooth="yes"/>
      <point x="406" y="622"/>
      <point x="443" y="620"/>
      <point x="482" y="606" type="curve"/>
      <point x="522" y="741" type="line"/>
      <point x="462" y="760"/>
      <point x="414" y="765"/>
      <point x="370" y="765" type="curve" smooth="yes"/>
      <point x="205" y="765"/>
      <point x="129" y="694"/>
      <point x="129" y="581" type="curve" smooth="yes"/>
      <point x="129" y="552" type="line"/>
      <point x="46" y="539" type="line"/>
      <point x="46" y="413" type="line"/>
      <point x="129" y="413" type="line"/>
    </contour>
    <contour>
      <point x="919" y="0" type="line"/>
      <point x="1094" y="0" type="line"/>
      <point x="1094" y="760" type="line"/>
      <point x="919" y="760" type="line"/>
    </contour>
  </outline>
</glyph>
<glyph name="longs_t" format="2">
  <advance width="600"/>
  <unicode hex="FB05"/>
  <anchor x="154" y="0" name="bottom"/>
  <anchor x="128" y="0" name="bottom_1"/>
  <anchor x="408" y="0" name="bottom_2"/>
  <anchor x="273" y="0" name="caret_1"/>
  <anchor x="391" y="277" name="center"/>
  <anchor x="266" y="765" name="top"/>
  <anchor x="128" y="765" name="top_1"/>
  <anchor x="408" y="765" name="top_2"/>
  <anchor x="601" y="677" name="topright"/>
  <outline>
    <contour>
      <point x="460" y="-10" type="curve" smooth="yes"/>
      <point x="498" y="-10"/>
      <point x="545" y="-3"/>
      <point x="572" y="5" type="curve"/>
      <point x="572" y="144" type="line"/>
      <point x="560" y="140"/>
      <point x="537" y="135"/>
      <point x="521" y="135" type="curve" smooth="yes"/>
      <point x="497" y="135"/>
      <point x="486" y="146"/>
      <point x="486" y="198" type="curve" smooth="yes"/>
      <point x="486" y="413" type="line"/>
      <point x="572" y="413" type="line"/>
      <point x="572" y="553" type="line"/>
      <point x="486" y="553" type="line"/>
      <point x="486" y="677" type="line"/>
      <point x="458" y="716"/>
      <point x="394" y="765"/>
      <point x="273" y="765" type="curve" smooth="yes"/>
      <point x="133" y="765"/>
      <point x="45" y="699"/>
      <point x="45" y="542" type="curve" smooth="yes"/>
      <point x="45" y="0" type="line"/>
      <point x="213" y="0" type="line"/>
      <point x="213" y="538" type="line" smooth="yes"/>
      <point x="213" y="590"/>
      <point x="223" y="624"/>
      <point x="267" y="624" type="curve" smooth="yes"/>
      <point x="297" y="624"/>
      <point x="313" y="608"/>
      <point x="318" y="593" type="curve"/>
      <point x="318" y="532" type="line"/>
      <point x="263" y="518" type="line"/>
      <point x="263" y="413" type="line"/>
      <point x="318" y="413" type="line"/>
      <point x="318" y="178" type="line" smooth="yes"/>
      <point x="318" y="55"/>
      <point x="341" y="-10"/>
    </contour>
  </outline>
</glyph>
<glyph name="s_t" format="2">
  <advance width="1200"/>
  <unicode hex="FB06"/>
  <anchor x="305" y="0" name="bottom"/>
  <anchor x="285" y="0" name="bottom_1"/>
  <anchor x="855" y="0" name="bottom_2"/>
  <anchor x="621" y="0" name="caret_1"/>
  <anchor x="842" y="277" name="center"/>
  <anchor x="305" y="553" name="top"/>
  <anchor x="285" y="553" name="top_1"/>
  <anchor x="855" y="765" name="top_2"/>
  <anchor x="1180" y="677" name="topright"/>
  <outline>
    <contour>
      <point x="970" y="-10" type="curve" smooth="yes"/>
      <point x="1022" y="-10"/>
      <point x="1071" y="-2"/>
      <point x="1130" y="18" type="curve"/>
      <point x="1130" y="157" type="line"/>
      <point x="1081" y="140"/>
      <point x="1054" y="135"/>
      <point x="1021" y="135" type="curve" smooth="yes"/>
      <point x="992" y="135"/>
      <point x="937" y="139"/>
      <point x="937" y="230" type="curve" smooth="yes"/>
      <point x="937" y="413" type="line"/>
      <point x="1128" y="413" type="line"/>
      <point x="1128" y="553" type="line"/>
      <point x="937" y="553" type="line"/>
      <point x="937" y="684" type="line"/>
      <point x="875" y="727"/>
      <point x="768" y="765"/>
      <point x="626" y="765" type="curve" smooth="yes"/>
      <point x="434" y="765"/>
      <point x="348" y="697"/>
      <point x="348" y="602" type="curve" smooth="yes"/>
      <point x="348" y="561"/>
      <point x="364" y="536"/>
      <point x="379" y="521" type="curve"/>
      <point x="520" y="521" type="line"/>
      <point x="494" y="535"/>
      <point x="488" y="550"/>
      <point x="488" y="565" type="curve" smooth="yes"/>
      <point x="488" y="600"/>
      <point x="524" y="624"/>
      <point x="614" y="624" type="curve" smooth="yes"/>
      <point x="691" y="624"/>
      <point x="745" y="605"/>
      <point x="762" y="592" type="curve"/>
      <point x="762" y="553" type="line"/>
      <point x="624" y="504" type="line"/>
      <point x="624" y="413" type="line"/>
      <point x="762" y="413" type="line"/>
      <point x="762" y="204" type="line" smooth="yes"/>
      <point x="762" y="63"/>
      <point x="812" y="-10"/>
    </contour>
    <contour>
      <point x="263" y="-10" type="curve" smooth="yes"/>
      <point x="449" y="-10"/>
      <point x="524" y="65"/>
      <point x="524" y="171" type="curve" smooth="yes"/>
      <point x="524" y="259"/>
      <point x="472" y="293"/>
      <point x="371" y="332" type="curve" smooth="yes"/>
      <point x="280" y="367"/>
      <point x="250" y="371"/>
      <point x="250" y="396" type="curve" smooth="yes"/>
      <point x="250" y="418"/>
      <point x="276" y="428"/>
      <point x="318" y="428" type="curve" smooth="yes"/>
      <point x="359" y="428"/>
      <point x="411" y="418"/>
      <point x="465" y="390" type="curve"/>
      <point x="520" y="521" type="line"/>
      <point x="445" y="552"/>
      <point x="379" y="563"/>
      <point x="313" y="563" type="curve" smooth="yes"/>
      <point x="168" y="563"/>
      <point x="80" y="509"/>
      <point x="80" y="396" type="curve" smooth="yes"/>
      <point x="80" y="314"/>
      <point x="127" y="273"/>
      <point x="221" y="233" type="curve" smooth="yes"/>
      <point x="298" y="200"/>
      <point x="353" y="193"/>
      <point x="353" y="160" type="curve" smooth="yes"/>
      <point x="353" y="133"/>
      <point x="314" y="125"/>
      <point x="272" y="125" type="curve" smooth="yes"/>
      <point x="212" y="125"/>
      <point x="142" y="141"/>
      <point x="70" y="175" type="curve"/>
      <point x="70" y="21" type="line"/>
      <point x="133" y="-1"/>
      <point x="199" y="-10"/>
    </contour>
  </outline>
</glyph>
<glyph name="hbar.sc" format="2">
  <advance width="600"/>
  <anchor x="300" y="0" name="bottom"/>
  <anchor x="300" y="591" name="top"/>
  <anchor x="300" y="296" name="center"/>
  <anchor x="580" y="591" name="topright"/>
  <outline>
    <contour>
      <point x="0" y="419" type="line"/>
      <point x="600" y="419" type="line"/>
      <point x="600" y="545" type="line"/>
      <point x="0" y="545" type="line"/>
    </contour>
    <component base="h.sc"/>
  </outline>
</glyph>
<glyph name="lslash.sc" format="2">
  <advance width="600"/>
  <anchor x="347" y="0" name="bottom"/>
  <anchor x="237" y="591" name="top"/>
  <anchor x="237" y="296" name="center"/>
  <anchor x="429" y="591" name="topright"/>
  <outline>
    <contour>
      <point x="93" y="180" type="line"/>
      <point x="458" y="378" type="line"/>
      <point x="390" y="498" type="line"/>
      <point x="28" y="296" type="line"/>
    </contour>
    <component base="l.sc" xOffset="20"/>
  </outline>
</glyph>
<glyph name="uni02E9_uni02E5_uni02E8" format="2">
  <advance width="600"/>
  <outline>
    <contour>
      <point x="424" y="0" type="line"/>
      <point x="490" y="0" type="line"/>
      <point x="490" y="688" type="line"/>
      <point x="424" y="688" type="line"/>
      <point x="424" y="295" type="line"/>
      <point x="264" y="688" type="line"/>
      <point x="37" y="24" type="line"/>
      <point x="99" y="1" type="line"/>
      <point x="269" y="497" type="line"/>
      <point x="424" y="114" type="line"/>
    </contour>
  </outline>
</glyph>
